<?xml version="1.0" standalone="no"?>
<!DOCTYPE svg PUBLIC "-//W3C//DTD SVG 20010904//EN"
 "http://www.w3.org/TR/2001/REC-SVG-20010904/DTD/svg10.dtd">
<svg version="1.0" xmlns="http://www.w3.org/2000/svg"
 width="768.000000pt" height="1024.000000pt" viewBox="0 0 768.000000 1024.000000"
 preserveAspectRatio="xMidYMid meet">

<g transform="translate(0.000000,1024.000000) scale(0.100000,-0.100000)"
fill="#000000" stroke="none">
<path d="M0 10005 c0 -129 3 -235 6 -235 3 0 19 11 35 25 42 35 91 41 179 22
l75 -16 65 38 c36 21 89 51 119 67 29 16 72 39 95 51 22 13 62 26 87 29 35 5
60 17 100 50 60 49 106 66 152 57 35 -7 132 -96 122 -112 -3 -6 0 -11 8 -11 8
0 20 -6 26 -14 6 -7 46 -23 89 -35 68 -20 148 -54 162 -70 17 -19 207 -151
218 -151 17 0 68 -30 97 -57 32 -30 56 -66 83 -126 12 -27 25 -40 44 -44 15
-3 25 -9 23 -14 -3 -4 -1 -10 5 -14 14 -9 12 -25 -3 -25 -17 0 -87 -66 -87
-83 0 -7 -9 -19 -19 -26 -11 -8 -17 -19 -15 -26 9 -21 -33 -48 -65 -42 -23 5
-30 2 -34 -13 -3 -13 -14 -20 -31 -20 -15 0 -30 -8 -36 -20 -12 -23 -76 -38
-93 -21 -6 6 -16 11 -21 11 -16 -1 34 -40 50 -40 23 0 16 -17 -16 -40 -17 -12
-28 -26 -25 -31 7 -11 -43 7 -65 24 -8 6 -5 0 8 -15 19 -20 20 -27 9 -31 -9
-3 -26 -3 -39 -1 -20 5 -21 4 -7 -8 14 -11 15 -17 4 -31 -7 -9 -23 -17 -36
-17 -41 0 -50 -12 -39 -50 6 -19 10 -36 10 -37 0 -11 -58 1 -91 17 -50 26 -68
60 -49 95 10 19 10 30 0 54 -7 17 -16 31 -21 31 -23 0 -5 28 21 34 17 3 30 10
30 16 0 6 -4 9 -9 6 -4 -3 -7 8 -5 25 3 21 0 28 -9 24 -6 -4 -4 0 6 8 14 12
15 20 8 41 -6 14 -8 33 -4 43 4 9 2 14 -3 11 -5 -4 -9 5 -9 18 0 15 5 22 13
19 7 -3 12 5 12 21 0 14 4 23 10 19 6 -3 13 1 16 9 5 12 9 13 20 3 33 -30 42
-35 48 -30 3 4 12 -1 19 -10 6 -9 32 -18 58 -21 38 -5 51 -1 79 19 19 14 29
25 22 25 -7 0 -12 4 -12 9 0 5 10 7 23 5 l22 -5 -22 12 c-13 7 -23 18 -23 26
0 42 -163 205 -189 189 -5 -3 -15 -29 -21 -58 -10 -39 -24 -62 -57 -94 -34
-33 -45 -53 -52 -91 -5 -26 -7 -51 -4 -56 13 -22 -13 -80 -67 -147 -34 -43
-67 -96 -76 -125 -9 -27 -30 -68 -46 -90 -41 -57 -302 -302 -359 -337 -27 -16
-49 -34 -49 -39 0 -11 -58 -41 -69 -35 -5 3 -69 1 -142 -4 -97 -7 -137 -14
-145 -24 -6 -8 -11 -41 -13 -73 -3 -76 -6 -96 -14 -110 -4 -6 -1 -28 7 -49 11
-31 15 -35 21 -21 10 24 37 37 63 30 26 -6 29 -33 5 -33 -16 -1 -16 -2 2 -16
11 -8 30 -13 43 -11 29 6 42 -18 39 -69 -2 -43 8 -57 66 -93 40 -25 40 -22 41
-196 1 -44 4 -51 29 -63 54 -26 96 -27 122 -2 30 29 31 37 4 66 -18 19 -19 25
-8 45 9 17 9 24 0 27 -30 10 -3 17 67 16 109 0 115 2 108 40 -4 17 -14 37 -24
44 -9 7 -16 17 -15 22 1 4 -4 14 -12 20 -8 7 -15 21 -15 31 0 10 -5 21 -10 24
-6 4 -8 11 -5 16 4 5 -1 9 -9 9 -9 0 -16 5 -16 11 0 6 -20 37 -45 69 -25 32
-45 63 -45 68 0 5 -7 12 -15 16 -8 3 -15 12 -15 20 0 7 -7 16 -15 20 -8 3 -15
12 -15 21 0 8 -5 15 -11 15 -6 0 -8 9 -4 20 4 12 2 20 -5 20 -7 0 -10 8 -7 19
3 14 1 18 -9 14 -21 -8 -17 11 6 25 12 7 26 10 32 6 7 -5 8 -3 4 5 -5 7 -15
10 -23 7 -8 -3 -11 -1 -8 4 3 6 16 8 28 5 12 -3 46 -7 76 -9 30 -2 57 -10 62
-18 5 -7 12 -13 16 -13 5 0 19 -9 31 -21 21 -19 65 -25 79 -10 4 3 12 1 18 -4
9 -8 11 0 9 32 -5 60 19 93 93 128 35 17 63 34 63 39 0 16 38 23 60 11 13 -7
19 -17 16 -26 -4 -11 0 -14 16 -12 15 2 23 -2 23 -12 0 -9 11 -16 30 -18 17
-2 37 -5 45 -8 26 -9 -18 -27 -50 -21 -20 4 -33 1 -46 -14 -17 -19 -17 -19 2
-17 27 4 31 -15 5 -27 -12 -5 -24 -17 -26 -26 -3 -10 -12 -20 -21 -23 -21 -8
4 -46 31 -46 20 -1 20 -1 1 -15 -25 -19 -12 -33 14 -17 27 17 25 4 -2 -20 -17
-15 -34 -19 -70 -16 -27 2 -48 1 -48 -1 0 -2 10 -12 22 -23 l22 -18 -34 -35
c-36 -37 -28 -45 21 -19 36 18 49 12 27 -13 -8 -10 -15 -25 -15 -33 0 -9 -3
-29 -6 -45 -7 -28 -6 -29 8 -11 8 11 18 17 21 13 4 -3 20 1 36 9 36 19 44 14
27 -17 -9 -17 -9 -24 0 -27 20 -7 11 -45 -24 -112 -36 -66 -46 -100 -19 -65
13 18 14 17 8 -13 -5 -26 -4 -31 8 -27 19 7 29 -41 16 -75 -5 -13 -4 -28 1
-34 5 -6 5 -33 0 -65 -4 -29 -6 -88 -3 -130 3 -42 5 -87 5 -101 -1 -33 18 -90
31 -90 6 0 8 -6 5 -14 -3 -8 1 -20 10 -27 12 -10 14 -26 10 -66 -3 -29 -2 -53
1 -53 4 0 6 -18 4 -40 -6 -58 2 -72 33 -60 21 8 25 7 25 -9 0 -10 6 -24 14
-30 17 -15 26 -45 16 -60 -5 -9 -10 -8 -20 4 -20 25 -30 18 -30 -22 0 -39 41
-139 46 -113 1 8 6 32 9 54 8 46 11 43 41 -31 34 -84 39 -117 20 -154 -9 -18
-16 -46 -16 -63 0 -40 34 -149 48 -154 25 -8 31 35 20 142 -7 77 -7 147 1 245
6 75 11 193 11 262 0 69 5 152 10 185 9 53 63 203 111 309 10 22 28 72 40 110
34 109 64 160 116 200 27 20 51 43 56 50 4 7 22 17 40 20 36 8 86 36 137 77
19 15 38 28 43 28 20 0 173 73 185 87 7 10 12 12 12 5 0 -16 49 -15 82 2 15 8
57 17 95 21 37 3 75 11 84 16 24 12 99 12 99 -1 0 -5 7 -10 16 -10 17 0 108
-45 134 -67 31 -25 173 -93 195 -93 39 0 164 -46 189 -69 27 -26 41 -104 23
-136 -6 -11 -12 -29 -14 -40 -15 -136 -9 -171 24 -158 11 4 14 3 9 -5 -4 -7 2
-24 13 -38 22 -28 21 -63 -6 -122 -8 -18 -15 -51 -16 -73 -2 -37 -6 -42 -38
-53 -20 -7 -50 -22 -67 -34 -16 -12 -35 -22 -40 -22 -5 0 -13 -7 -16 -16 -3
-9 -12 -14 -19 -11 -7 3 -21 -1 -31 -8 -10 -8 -23 -12 -30 -9 -7 3 -18 -7 -26
-21 -7 -14 -17 -25 -22 -25 -5 0 -24 -15 -42 -32 -17 -18 -46 -45 -64 -60 -48
-39 -66 -89 -50 -136 7 -20 16 -42 20 -48 4 -6 8 -60 7 -120 0 -171 1 -182 21
-315 11 -70 17 -137 15 -150 -3 -13 -17 -43 -32 -68 -23 -36 -39 -49 -83 -66
l-55 -22 -35 24 c-61 41 -126 26 -179 -39 -24 -30 -24 -31 -6 -44 27 -20 92
-17 124 5 40 29 75 35 118 20 21 -7 60 -13 86 -14 41 0 52 -4 71 -27 12 -16
22 -37 23 -49 1 -12 8 -29 15 -38 8 -9 21 -33 31 -53 16 -36 16 -38 -3 -48
-10 -5 -25 -10 -33 -10 -8 0 -41 -12 -72 -26 -54 -25 -62 -26 -105 -15 -57 15
-105 5 -221 -44 -46 -20 -108 -40 -138 -45 -51 -9 -81 -24 -70 -34 10 -11 127
-8 187 4 41 8 92 10 145 6 45 -4 115 -10 155 -13 41 -3 75 -11 77 -17 2 -6 6
-30 9 -53 5 -34 3 -43 -9 -43 -8 0 -19 -9 -25 -20 -6 -11 -21 -20 -34 -20 -12
0 -46 -7 -74 -15 -60 -18 -90 -52 -73 -82 8 -16 19 -19 68 -15 58 4 71 0 250
-75 7 -3 21 -24 33 -48 l21 -43 -22 -46 c-11 -25 -28 -46 -36 -46 -8 0 -20
-15 -28 -34 -18 -43 -69 -86 -103 -87 -15 -1 -52 -3 -82 -4 -37 -1 -71 -10
-105 -28 -72 -38 -169 -44 -238 -15 -29 12 -65 31 -82 43 -39 28 -55 37 -55
32 0 -5 115 -91 180 -134 25 -16 86 -51 135 -77 112 -60 145 -83 145 -102 0
-22 -88 -113 -147 -151 -58 -37 -77 -66 -88 -131 -9 -54 12 -82 61 -82 32 0
32 -1 32 -46 -1 -50 12 -68 54 -78 22 -5 35 0 65 27 21 18 49 38 64 45 42 22
108 107 113 146 6 43 20 72 54 108 30 33 43 35 66 9 16 -17 15 -20 -9 -49 -14
-16 -25 -35 -25 -41 0 -6 -4 -11 -10 -11 -5 0 -10 -6 -10 -14 0 -7 -7 -19 -15
-26 -8 -7 -15 -22 -15 -34 0 -12 -15 -44 -32 -71 -42 -62 -43 -64 -58 -100 -7
-16 -18 -43 -25 -60 -13 -30 -33 -103 -39 -141 -2 -11 -6 -25 -9 -30 -3 -6 -8
-32 -12 -59 -8 -74 -10 -84 -18 -91 -4 -4 -7 -20 -7 -36 0 -15 -4 -28 -10 -28
-5 0 -10 -10 -10 -21 0 -19 -45 -80 -120 -161 -47 -52 -50 -48 -146 179 -23
57 -55 124 -70 150 -63 111 -120 201 -152 241 -54 68 -151 304 -183 447 -13
61 -33 182 -74 457 -8 53 -15 112 -15 131 0 43 -10 97 -19 97 -3 0 -14 -18
-23 -38 -10 -21 -34 -57 -53 -79 -19 -23 -35 -44 -35 -48 0 -12 -37 -54 -43
-49 -8 9 -61 -78 -59 -98 0 -10 -3 -18 -9 -18 -5 0 -9 -7 -9 -16 0 -10 -6 -13
-18 -10 -26 9 -82 -21 -75 -40 3 -8 0 -21 -7 -29 -16 -19 -50 -19 -50 -1 0 29
-20 27 -26 -3 -5 -23 -16 -35 -45 -48 -54 -25 -51 -44 5 -37 39 6 45 4 56 -16
9 -17 9 -25 0 -34 -8 -8 -10 -7 -5 6 9 23 -14 24 -41 2 -10 -8 -14 -13 -7 -9
17 8 53 -16 53 -36 0 -9 -9 -24 -20 -34 -20 -18 -20 -17 -20 8 0 15 -4 27 -9
27 -5 0 -14 13 -21 30 -9 23 -16 28 -29 21 -9 -5 -21 -7 -26 -5 -6 3 -11 -5
-11 -16 0 -13 4 -16 10 -10 6 6 18 10 27 10 19 0 16 -29 -8 -66 -13 -20 -12
-22 12 -28 14 -4 30 -17 34 -29 11 -28 6 -34 -14 -17 -13 11 -19 10 -33 -5
-13 -13 -14 -19 -5 -22 20 -7 16 -43 -4 -43 -24 0 -49 -17 -40 -27 5 -4 12 -1
17 7 6 9 10 10 10 3 0 -6 -4 -14 -9 -17 -5 -3 -7 -16 -3 -29 5 -19 4 -20 -11
-9 -28 23 -39 5 -32 -53 4 -42 3 -54 -10 -58 -16 -7 -16 -6 -21 91 -2 37 3 48
32 77 19 19 34 39 34 44 0 6 -17 15 -37 20 -21 6 -45 21 -54 33 -15 19 -19 20
-33 9 -21 -18 -21 -51 1 -51 14 0 13 -4 -5 -23 -12 -13 -19 -27 -15 -32 5 -4
2 -5 -5 -1 -7 5 -12 18 -11 29 2 34 0 43 -9 32 -4 -6 -24 -23 -45 -39 -39 -28
-60 -29 -37 -1 10 12 10 15 -3 15 -8 0 -24 -12 -35 -27 -19 -26 -22 -27 -53
-16 -27 11 -36 10 -49 -2 -9 -8 -29 -15 -44 -15 -14 0 -29 -7 -32 -15 -8 -20
-43 -19 -51 1 -3 9 -1 25 5 35 17 27 15 32 -10 26 -29 -8 -58 9 -58 33 0 11
-6 20 -13 20 -8 0 -40 18 -71 41 -41 29 -67 41 -92 41 -45 0 -49 -5 -34 -42 8
-20 26 -36 48 -46 l35 -14 -47 -30 c-26 -17 -63 -37 -82 -45 -20 -8 -33 -19
-29 -25 4 -6 2 -16 -3 -23 -22 -28 -24 -88 -3 -128 17 -33 19 -43 9 -59 -7
-11 -16 -20 -20 -20 -9 0 -39 39 -62 82 -19 35 -19 36 2 79 12 23 20 45 18 47
-9 8 -46 -20 -47 -36 0 -9 -2 -39 -5 -67 -2 -31 1 -55 10 -65 23 -26 45 -107
33 -119 -7 -7 -7 -14 1 -24 6 -7 10 -26 9 -43 -1 -19 2 -28 10 -27 9 2 13 -10
13 -33 0 -56 72 -150 105 -137 16 6 17 2 12 -33 -5 -33 -3 -42 13 -54 11 -8
20 -22 20 -32 0 -11 7 -18 20 -18 11 0 20 4 20 10 0 5 8 7 18 3 14 -5 15 -3 5
8 -18 18 -16 29 5 29 24 0 50 -33 49 -62 -2 -18 -8 -23 -27 -23 -29 0 -38 -27
-15 -47 9 -7 26 -23 37 -35 12 -13 28 -23 35 -23 7 0 13 -7 13 -15 0 -18 26
-20 36 -3 10 17 25 -28 18 -56 -5 -23 41 -95 132 -203 25 -29 47 -66 50 -85
12 -73 14 -78 35 -78 12 0 34 11 50 25 16 13 36 22 44 19 20 -8 19 11 -1 46
-16 26 -13 67 4 56 4 -2 18 -26 31 -51 19 -39 21 -49 10 -56 -11 -7 -6 -17 23
-44 20 -19 40 -35 45 -35 5 0 17 -17 28 -37 11 -20 37 -57 57 -82 21 -25 55
-80 76 -123 l38 -79 -12 -97 c-14 -115 -25 -177 -65 -374 -29 -147 -33 -230
-15 -393 4 -34 -8 -255 -30 -560 -3 -44 -7 -118 -9 -165 -1 -47 -7 -101 -12
-120 -6 -20 -7 -44 -3 -55 4 -11 5 -24 2 -30 -4 -5 -7 -37 -8 -70 -1 -33 -7
-85 -12 -115 -6 -30 -7 -56 -4 -58 14 -5 6 -465 -7 -508 -10 -29 -11 -50 -4
-70 8 -23 5 -43 -13 -94 -34 -96 -42 -136 -49 -225 -4 -44 -9 -83 -11 -87 -3
-5 130 -8 295 -8 207 0 301 3 301 11 0 6 -7 18 -16 26 -8 9 -12 19 -7 22 14
11 33 50 33 70 0 11 5 23 10 26 17 10 11 25 -10 25 -16 0 -18 4 -11 23 6 17
15 21 36 19 25 -3 27 -2 20 20 -4 12 -7 35 -7 50 1 20 -5 28 -25 33 l-27 6 29
25 c26 22 32 36 34 89 1 17 3 17 11 5 6 -9 10 -10 10 -3 0 6 -4 14 -10 18 -5
3 -6 15 -1 27 6 16 2 32 -10 52 -13 21 -15 35 -8 47 11 21 31 207 24 219 -6
10 -45 1 -45 -11 0 -5 -4 -9 -9 -9 -17 0 0 36 17 36 9 1 25 4 35 9 12 5 17 3
17 -8 0 -9 7 -20 16 -25 13 -7 16 -27 17 -106 0 -53 -3 -99 -7 -103 -3 -4 7
-12 24 -19 42 -18 40 -44 -4 -44 -37 0 -53 -14 -39 -33 5 -7 8 -32 7 -57 0
-25 1 -49 4 -53 2 -5 6 -39 8 -75 3 -37 7 -98 10 -137 3 -38 7 -88 8 -110 4
-60 5 -61 23 -35 10 14 18 43 19 65 5 102 16 314 20 350 2 22 3 61 3 88 1 26
4 47 8 47 5 0 17 -18 27 -40 18 -37 18 -41 2 -65 -12 -17 -14 -31 -8 -42 6
-10 6 -28 0 -46 -8 -21 -7 -31 0 -36 8 -5 9 -18 1 -45 -9 -32 -8 -40 7 -50 14
-10 14 -16 5 -35 -7 -12 -13 -58 -15 -101 -1 -44 -6 -83 -9 -87 -4 -3 -7 -12
-7 -20 0 -10 53 -13 279 -13 l279 0 7 37 c3 21 29 128 55 238 27 110 52 216
55 235 3 19 8 51 11 71 4 22 2 39 -5 43 -16 10 -14 26 4 26 20 0 30 23 49 114
19 94 19 87 2 80 -9 -3 -15 6 -20 27 -3 18 -4 34 -1 37 3 3 5 -2 5 -10 0 -9 9
-18 20 -21 19 -5 20 -2 16 26 -3 17 -1 34 4 37 5 3 12 30 15 59 2 29 8 58 11
63 4 6 2 8 -4 4 -17 -10 -25 13 -9 29 8 8 17 12 20 9 6 -6 19 29 16 42 -1 5 3
21 9 36 15 37 41 189 31 182 -4 -2 -10 0 -14 6 -3 5 -16 10 -29 10 -32 0 -35
7 -24 48 7 26 7 37 -1 40 -6 2 -11 8 -11 13 0 4 6 6 14 3 10 -4 12 1 9 18 -2
13 2 44 11 68 10 28 12 46 5 48 -6 3 -6 8 0 16 13 15 8 49 -7 54 -7 2 -12 -5
-12 -16 0 -11 -6 -25 -14 -31 -25 -21 -15 89 11 125 23 32 49 40 57 17 3 -7
17 -13 31 -13 28 0 32 -8 10 -24 -11 -9 -12 -20 -4 -60 l11 -48 26 51 c23 45
25 53 12 61 -13 9 -13 11 0 20 13 9 11 13 -10 29 l-24 19 34 4 c31 3 35 6 52
63 67 214 85 266 110 317 15 32 28 68 28 81 0 30 103 384 123 422 8 17 44 58
79 92 51 48 77 65 121 78 61 18 77 36 92 105 17 82 35 109 78 121 22 6 55 22
72 35 23 17 45 24 77 24 33 0 56 8 86 27 48 33 145 138 192 208 48 73 69 93
108 106 20 7 45 20 55 30 11 10 24 16 28 13 9 -5 51 19 46 27 -1 3 5 -3 15
-13 20 -22 38 -23 38 -2 0 8 20 36 45 61 25 25 44 48 41 50 -7 7 30 79 52 102
9 10 26 30 36 45 14 19 22 23 31 16 9 -8 14 -7 17 0 2 7 21 13 42 15 34 4 38
2 33 -15 -6 -23 -3 -24 22 -8 16 9 17 16 8 35 -8 18 -13 20 -24 12 -10 -9 -13
-8 -13 5 0 19 10 20 44 5 14 -7 22 -17 19 -25 -7 -19 6 -18 48 4 l34 18 -24
22 c-13 12 -27 19 -30 16 -3 -4 0 -9 7 -11 6 -3 12 -9 12 -14 0 -6 -4 -8 -9
-5 -5 4 -12 0 -15 -6 -5 -11 -7 -11 -12 0 -3 6 -10 10 -15 6 -5 -3 -9 -1 -9 4
0 6 7 12 15 16 8 3 15 13 15 22 0 15 2 15 24 1 17 -12 26 -13 34 -5 7 7 15 9
19 5 3 -4 -2 -14 -13 -22 -10 -8 -14 -15 -7 -15 6 0 15 5 18 10 4 6 10 8 15 5
5 -3 11 4 15 15 3 11 12 20 20 20 7 0 15 18 19 44 8 52 34 68 121 70 48 1 56
4 64 26 11 29 10 92 -2 101 -5 4 -3 16 4 27 10 16 16 18 26 10 9 -7 17 -7 28
2 12 10 15 9 15 -5 0 -14 3 -15 15 -5 12 10 15 10 15 -3 0 -8 9 -17 20 -20 25
-6 25 -19 1 -115 -11 -43 -19 -98 -19 -124 1 -44 -11 -77 -69 -195 -9 -18 -51
-60 -94 -93 -43 -34 -111 -98 -151 -143 -115 -129 -158 -169 -274 -256 -60
-45 -156 -124 -214 -176 -58 -51 -163 -145 -235 -207 -262 -230 -416 -473
-631 -998 -63 -152 -93 -244 -120 -355 -19 -82 -39 -151 -44 -153 -6 -2 -10
-18 -10 -35 0 -18 -16 -122 -34 -232 -35 -203 -106 -461 -239 -870 -30 -93
-58 -185 -62 -203 l-7 -32 384 0 383 0 58 198 c32 108 58 204 58 212 -1 8 15
44 35 80 19 36 47 98 61 139 14 41 36 93 49 115 13 23 24 47 24 54 0 7 11 30
25 52 14 22 22 40 18 40 -5 0 -3 4 3 8 16 10 76 151 69 161 -3 5 -1 11 5 13 5
1 11 12 13 23 2 11 7 28 10 38 20 52 34 122 42 202 6 54 17 151 21 175 16 101
20 156 11 161 -5 4 -7 17 -4 30 38 166 117 307 233 414 41 39 93 87 115 108
22 20 44 37 49 37 6 0 10 8 10 18 0 10 5 23 11 29 7 7 12 71 13 169 3 156 3
160 35 226 17 37 40 70 49 73 22 7 89 65 76 65 -5 0 -15 -5 -22 -12 -8 -8 -12
-8 -12 -1 0 19 25 33 40 23 21 -13 27 -12 34 6 4 10 2 13 -7 9 -6 -4 -3 1 7 9
12 9 24 12 29 7 5 -5 24 -1 45 9 20 10 40 16 44 13 5 -2 8 0 8 6 0 6 16 13 35
17 19 3 35 10 35 14 0 4 11 12 25 18 32 15 41 22 124 98 36 33 89 77 116 96
68 49 165 152 165 176 0 28 37 70 73 86 64 26 254 65 347 71 52 3 133 14 179
24 74 17 89 18 135 6 45 -12 61 -11 127 3 51 12 74 21 72 30 -3 6 -1 12 4 12
12 0 111 -66 154 -104 21 -17 52 -40 70 -51 26 -16 35 -29 40 -60 4 -22 5 -42
3 -44 -2 -3 -20 3 -39 12 -39 19 -59 22 -51 8 3 -4 -5 -6 -17 -4 -23 4 -117
-51 -117 -68 0 -5 -11 -14 -24 -19 -17 -6 -26 -19 -31 -47 -4 -21 -12 -44 -17
-51 -6 -7 -8 -15 -5 -19 4 -3 0 -15 -8 -27 -19 -26 -19 -42 -1 -27 12 10 13 6
5 -29 -10 -45 -64 -204 -75 -222 -8 -13 -33 -117 -41 -173 -3 -22 -11 -58 -19
-80 -42 -122 14 -7 106 218 51 124 59 154 86 335 15 106 18 114 43 125 14 6
34 20 43 31 17 21 17 20 41 -34 14 -30 27 -75 31 -100 5 -39 4 -42 -5 -20 -57
123 -58 123 -33 3 8 -42 14 -100 12 -130 -3 -30 -1 -56 3 -59 10 -6 0 -97 -11
-104 -4 -3 -18 -43 -30 -90 -12 -46 -27 -93 -33 -105 -6 -11 -12 -22 -12 -25
-1 -3 -7 -17 -13 -31 -9 -24 -14 -43 -28 -121 -1 -10 1 -20 7 -23 5 -4 9 1 9
9 0 8 6 19 13 23 15 9 26 28 96 172 l51 104 0 113 c0 62 4 115 9 118 15 10 51
-107 66 -217 4 -27 10 -45 16 -41 5 3 7 14 4 25 -10 30 9 22 29 -11 12 -21 14
-35 8 -43 -5 -7 -8 -21 -7 -33 1 -12 -4 -21 -13 -21 -8 0 -12 7 -8 20 5 22 -2
47 -15 47 -5 0 -9 -38 -9 -85 0 -47 3 -85 8 -85 12 0 38 20 26 20 -6 0 -11 7
-11 15 0 8 5 12 10 8 5 -3 6 4 2 18 -4 13 -4 21 0 17 5 -5 9 -20 11 -35 1 -16
6 -44 9 -63 4 -19 8 -40 9 -47 3 -20 13 -25 19 -9 4 9 3 17 -1 20 -4 2 -7 30
-6 63 0 44 4 58 16 58 21 0 43 -26 44 -55 1 -14 4 -36 7 -50 3 -14 6 -31 6
-38 1 -8 6 -10 14 -6 9 5 9 4 0 -6 -8 -9 -9 -19 -2 -32 5 -10 7 -23 4 -28 -3
-6 -2 -10 4 -10 10 0 27 -38 23 -52 -1 -5 4 -8 10 -8 9 0 8 -3 -2 -9 -8 -6
-18 -7 -23 -4 -5 3 -1 -7 9 -21 13 -21 19 -24 26 -14 7 10 9 10 5 -2 -2 -8
-11 -14 -20 -14 -14 1 -14 -1 1 -24 9 -15 11 -23 5 -19 -8 5 -13 3 -13 -5 0
-8 6 -20 13 -27 10 -11 9 -12 -2 -6 -12 7 -13 1 -7 -31 5 -21 9 -50 10 -64 2
-14 4 -31 4 -37 1 -7 9 -13 17 -13 10 0 14 8 11 23 -2 12 2 28 8 36 8 11 8 13
-1 8 -8 -5 -11 0 -10 13 1 20 26 29 28 10 3 -20 4 -25 12 -38 5 -7 3 -12 -5
-12 -10 0 -9 -3 2 -10 8 -5 11 -12 8 -16 -4 -4 -3 -15 3 -26 6 -11 11 -34 11
-51 1 -39 6 -49 20 -41 7 4 7 9 -1 13 -14 9 -2 51 14 51 7 0 16 -11 19 -25 5
-19 13 -25 34 -25 24 1 25 2 10 14 -12 9 -14 16 -7 23 7 7 8 17 3 25 -11 16
-12 108 -1 101 4 -2 7 3 7 11 0 9 -4 16 -10 16 -16 0 -11 37 6 44 15 6 15 8 1
29 -12 18 -12 24 -2 24 22 0 39 -70 27 -106 -8 -23 -8 -30 0 -25 7 5 9 -2 6
-20 -4 -19 -2 -26 7 -23 6 3 12 -1 12 -9 0 -7 -5 -10 -11 -7 -6 4 -4 -2 5 -13
16 -19 15 -59 -1 -49 -5 3 -12 0 -16 -6 -4 -7 -3 -9 3 -6 6 4 14 0 17 -9 9
-23 8 -24 -16 -25 -17 -1 -19 -2 -5 -6 19 -5 23 -28 6 -38 -6 -5 -4 -12 8 -22
10 -8 13 -12 7 -9 -14 7 -24 -26 -19 -57 2 -12 7 -44 10 -71 3 -27 8 -53 12
-59 6 -10 14 -87 13 -135 0 -13 5 -20 10 -17 6 3 10 2 10 -4 0 -5 -6 -12 -12
-14 -10 -4 -9 -6 1 -6 11 -1 11 -4 1 -17 -11 -12 -11 -15 -1 -12 8 2 15 -9 16
-27 2 -16 6 -43 9 -59 2 -17 0 -39 -6 -49 -7 -14 -7 -17 1 -13 13 9 39 -51 36
-84 -1 -14 3 -31 9 -39 6 -7 11 -19 11 -25 2 -24 19 -72 34 -96 10 -14 11 -21
4 -17 -7 5 -13 4 -13 -2 0 -6 5 -11 10 -11 6 0 10 -17 10 -37 0 -44 6 -55 38
-72 18 -9 21 -16 12 -26 -8 -9 -6 -14 6 -19 9 -3 14 -13 11 -20 -5 -13 12 -26
34 -26 13 0 8 42 -6 52 -6 5 -5 8 4 8 10 0 11 3 2 14 -8 10 -9 16 -1 21 6 3 8
11 4 16 -3 5 -7 22 -9 37 -7 50 -16 95 -21 104 -3 5 -7 28 -8 53 -2 25 -9 52
-16 60 -9 11 -10 18 -1 29 12 14 5 46 -9 46 -5 0 -6 8 -3 19 2 10 -1 38 -8 62
-7 24 -13 46 -14 49 -4 16 -19 139 -20 160 0 14 -3 30 -8 37 -4 6 -3 14 3 18
6 4 7 12 3 18 -4 6 -8 29 -10 52 -7 109 -11 144 -17 154 -4 6 -2 11 5 11 8 0
9 3 0 13 -6 8 -8 17 -4 20 3 4 1 7 -5 7 -7 0 -12 7 -12 16 0 8 5 12 11 9 6 -4
5 2 -3 14 -7 12 -17 21 -22 21 -4 0 -4 6 2 12 10 13 -2 112 -17 133 -4 6 -7
22 -6 37 0 15 -3 24 -9 21 -5 -4 -7 1 -3 10 4 11 -2 17 -24 22 -28 6 -29 8
-12 21 16 13 16 14 -9 8 -18 -4 -28 -2 -28 5 0 6 -5 11 -11 11 -11 0 -39 25
-39 35 0 3 10 0 23 -6 22 -12 22 -12 3 9 -10 12 -16 28 -13 37 4 8 1 15 -5 15
-6 0 -8 3 -5 6 3 4 2 15 -3 25 -7 12 -6 19 3 22 7 4 6 6 -4 6 -19 1 -35 31
-16 31 7 0 13 11 13 25 1 14 -2 23 -6 20 -5 -3 -6 3 -3 14 3 10 0 22 -6 25 -5
4 -8 13 -5 20 3 7 -2 16 -10 19 -24 9 -20 29 4 22 15 -5 18 -3 14 9 -3 9 -13
16 -22 16 -13 0 -13 3 2 19 12 14 14 21 6 26 -7 4 -10 16 -7 26 3 10 -1 23 -9
30 -8 6 -11 15 -8 21 3 5 0 16 -8 25 -9 12 -9 15 0 9 15 -9 16 6 0 22 -15 15
-17 23 -34 151 -7 57 -19 110 -25 117 -9 11 -8 14 2 14 10 0 11 2 2 8 -19 12
11 45 35 38 26 -9 62 -107 132 -354 16 -56 33 -108 37 -115 4 -7 8 -14 8 -17
1 -3 16 -49 34 -103 19 -57 31 -109 28 -124 -6 -32 19 -106 66 -197 20 -38 39
-83 41 -100 3 -17 17 -62 32 -101 14 -38 28 -85 31 -103 3 -18 9 -35 14 -37
11 -7 3 113 -10 147 -13 35 -47 181 -55 238 -4 25 -22 108 -41 185 -18 77 -40
170 -49 207 -15 69 -98 284 -141 367 -30 59 -155 201 -298 340 -37 36 -67 74
-67 83 0 27 48 76 88 88 20 6 43 13 49 15 24 8 1 33 -85 91 l-87 59 -100 2
c-131 2 -158 8 -230 48 -92 51 -145 101 -145 135 0 47 -16 75 -74 136 -31 31
-56 60 -56 63 0 10 -165 90 -200 97 -8 2 -44 8 -80 14 -36 6 -92 20 -125 32
-33 11 -98 28 -145 37 -47 10 -101 23 -120 29 -19 6 -69 21 -110 33 -41 11
-99 29 -128 40 -29 10 -64 19 -77 19 -16 0 -25 6 -25 15 0 8 -3 14 -7 14 -5
-1 -32 -1 -62 0 -47 1 -52 3 -40 17 29 36 107 59 95 29 -4 -12 0 -14 19 -11
14 3 29 7 33 10 5 3 25 6 45 8 21 1 37 5 37 8 0 3 12 6 28 6 15 1 45 10 67 20
l40 18 -40 7 c-22 4 -69 5 -104 2 -54 -5 -63 -4 -59 9 5 13 -2 13 -50 5 -32
-5 -79 -10 -107 -11 -44 -1 -51 2 -62 24 -6 14 -23 36 -36 48 -22 21 -27 22
-76 10 -64 -14 -83 -3 -55 35 16 22 30 30 77 42 4 2 10 4 15 5 4 1 12 3 17 4
6 1 17 5 25 8 8 4 33 12 55 19 22 6 116 50 210 97 185 94 225 125 335 268 30
39 71 82 90 95 19 13 56 45 83 72 27 26 57 47 67 47 50 0 64 25 30 55 -17 16
-22 16 -42 3 -30 -19 -120 -53 -133 -50 -6 1 -50 -31 -97 -71 -73 -60 -99 -76
-161 -94 -68 -21 -79 -28 -146 -98 -39 -41 -88 -84 -109 -95 -39 -21 -77 -26
-86 -11 -3 5 -17 9 -31 9 -45 0 -104 30 -105 54 0 3 15 11 32 18 30 10 31 12
16 24 -29 22 -47 67 -41 100 9 47 29 57 105 54 49 -2 71 2 85 13 32 29 116 60
163 60 229 2 244 4 277 27 18 13 46 39 63 60 28 35 35 37 97 42 64 5 67 6 75
35 4 17 23 46 43 65 32 31 37 32 59 21 35 -19 45 -7 40 47 -3 26 0 70 7 97 6
28 11 62 10 78 0 40 -33 107 -81 168 -42 53 -80 119 -80 139 0 5 8 10 18 10
10 0 28 9 40 20 24 23 23 49 -3 120 -9 25 -19 56 -23 70 -11 37 0 104 18 109
23 7 100 2 118 -8 18 -10 105 16 96 30 -3 5 -1 9 5 9 6 0 13 11 17 25 4 17 -4
41 -27 82 -19 32 -43 75 -54 95 -11 20 -32 50 -46 66 -27 30 -45 81 -40 117 2
11 16 51 32 88 38 85 37 131 -3 135 -25 3 -28 -1 -39 -43 -7 -26 -22 -59 -35
-75 -16 -19 -27 -49 -33 -94 -5 -37 -15 -73 -21 -81 -8 -9 -7 -25 1 -57 21
-79 -18 -156 -89 -173 -23 -6 -49 -17 -57 -26 -14 -14 -14 -20 0 -58 8 -24 15
-45 15 -47 0 -10 -25 -2 -41 12 -9 8 -45 22 -78 30 -101 23 -154 56 -215 133
-70 87 -134 142 -216 184 -57 30 -76 34 -149 36 -46 1 -109 7 -140 12 -31 5
-94 16 -141 24 -56 10 -116 13 -175 9 -85 -6 -168 5 -178 24 -10 16 27 275 43
303 5 9 7 33 4 53 -3 28 -1 36 11 36 13 0 14 4 5 20 -8 14 -8 20 0 20 6 0 8 5
5 11 -4 6 -4 31 0 56 5 35 9 43 17 32 7 -10 8 -3 3 23 -4 25 -1 41 10 51 16
17 20 53 6 61 -10 7 -13 86 -3 86 4 0 23 -23 42 -51 65 -93 59 -87 60 -56 0
15 -6 40 -13 55 -8 15 -20 60 -27 100 -7 40 -17 75 -22 78 -4 3 -8 11 -8 17 0
7 7 3 16 -8 12 -16 16 -17 23 -6 5 8 14 10 22 5 12 -6 12 -5 0 9 -12 15 -9 21
11 18 4 0 5 13 1 29 -6 35 6 39 32 10 10 -11 20 -18 23 -15 14 13 10 63 -7 85
-10 14 -21 35 -25 48 -4 12 -11 22 -16 22 -15 0 -44 64 -31 68 8 3 8 9 0 23
-5 11 -7 24 -4 30 4 5 1 16 -5 24 -12 14 -20 57 -23 125 -1 19 -6 41 -10 48
-5 6 -5 12 -2 12 11 0 65 -34 65 -41 0 -3 9 -16 20 -29 11 -13 20 -29 20 -36
0 -7 5 -16 11 -19 15 -10 1 107 -22 184 -23 72 -87 205 -131 269 -38 55 -19
54 37 -3 25 -24 45 -40 45 -34 0 25 -235 219 -266 219 -45 0 -151 87 -188 155
-26 47 -65 98 -97 127 -31 29 -40 62 -14 52 13 -5 14 -2 5 20 -8 22 -5 36 14
74 31 60 61 93 128 136 74 47 121 58 199 47 41 -5 71 -5 83 1 11 6 45 8 76 5
48 -5 72 -1 160 28 141 48 174 47 286 -12 49 -25 107 -59 128 -75 21 -15 43
-28 48 -28 5 0 60 -34 123 -75 114 -76 175 -129 175 -151 0 -29 97 -116 165
-148 48 -23 100 -61 165 -119 52 -48 100 -86 106 -87 6 0 17 -7 24 -15 7 -8
21 -15 30 -15 10 0 20 -3 22 -7 2 -5 48 -23 103 -42 55 -18 119 -42 142 -52
23 -10 51 -19 62 -19 11 0 22 -4 26 -10 3 -5 12 -7 19 -4 8 3 17 1 21 -5 3 -6
19 -11 36 -11 16 0 29 -5 29 -12 0 -10 3 -9 9 1 6 10 10 10 16 1 5 -8 13 -6
28 7 17 15 19 15 15 2 -6 -16 -1 -18 57 -22 17 -2 36 -6 43 -10 6 -5 18 -5 25
-1 9 6 9 5 0 -7 -10 -12 -8 -15 8 -16 11 -1 17 3 13 9 -4 6 3 5 16 -2 15 -8
20 -8 16 -1 -4 6 -3 11 3 11 6 0 8 8 5 18 -5 13 -4 14 4 3 6 -8 8 -20 6 -26
-3 -7 4 -15 16 -18 16 -4 20 -2 16 9 -3 8 -2 13 3 9 5 -3 11 0 13 6 2 6 15 1
31 -11 15 -12 34 -19 42 -16 8 3 15 0 15 -6 0 -6 3 -8 7 -5 3 4 13 1 21 -5 11
-10 16 -9 23 5 11 19 35 13 44 -11 5 -14 3 -14 -13 1 -19 17 -20 17 -24 -1 -4
-13 0 -18 18 -17 12 0 25 3 29 7 4 4 21 4 38 1 21 -4 28 -3 23 5 -4 6 -14 8
-23 5 -13 -5 -15 -2 -10 11 4 10 7 24 7 32 0 8 7 14 15 14 8 0 15 5 15 12 0 6
3 8 7 4 5 -4 -1 -14 -11 -22 -11 -8 -14 -14 -8 -14 7 0 21 -9 32 -20 16 -16
25 -18 38 -11 15 9 15 10 -4 11 -12 0 -28 8 -35 18 -7 9 -9 14 -5 10 5 -4 15
-3 23 4 7 6 17 8 20 4 4 -4 2 -11 -6 -15 -9 -6 -5 -10 13 -13 15 -3 29 -1 32
3 3 5 0 9 -5 9 -6 0 -11 4 -11 10 0 17 28 -1 33 -21 3 -10 2 -17 -2 -15 -4 3
-13 1 -19 -3 -10 -6 -9 -11 4 -22 10 -8 15 -9 11 -2 -4 7 1 14 13 18 17 5 19
10 9 21 -12 15 -1 19 16 6 12 -8 17 -27 18 -62 0 -14 2 -20 4 -14 2 7 14 10
26 8 12 -2 16 -1 9 2 -10 5 -8 10 7 21 24 16 45 8 36 -14 -5 -14 -3 -14 11 -2
14 11 18 11 30 -6 8 -10 17 -15 21 -11 4 4 1 11 -7 17 -13 8 -13 10 0 20 12 8
10 9 -10 5 -14 -3 -19 -3 -12 0 10 5 10 9 1 20 -8 9 -8 14 -1 14 6 0 14 -5 17
-11 4 -6 14 -8 22 -5 12 5 14 1 9 -19 -4 -14 -2 -25 4 -25 5 0 9 3 9 8 -3 18
2 32 12 32 6 0 9 -6 6 -14 -4 -11 1 -13 19 -10 15 3 24 0 24 -8 0 -9 3 -8 10
2 9 15 13 16 46 19 8 0 13 5 10 9 -2 4 4 9 15 9 21 2 26 -13 7 -20 -7 -2 -9
-8 -5 -13 4 -4 17 -3 28 4 11 7 23 10 28 8 4 -3 8 1 8 9 0 11 -5 12 -21 3 -17
-8 -19 -8 -9 2 6 7 9 20 6 29 -4 13 -3 13 5 2 6 -8 15 -10 22 -6 9 5 11 4 6
-3 -9 -15 -1 -15 24 -2 17 9 31 -4 34 -32 1 -5 4 -8 9 -8 4 0 10 0 13 0 4 0
-2 12 -12 27 l-17 28 25 -17 c25 -16 38 -15 38 4 0 5 -4 6 -10 3 -6 -3 -7 1
-4 10 6 14 8 13 21 -4 9 -13 20 -18 31 -14 15 6 15 5 3 -10 -18 -23 -5 -21 35
4 19 11 42 18 51 15 10 -3 22 -5 26 -3 5 1 15 -9 23 -23 14 -23 14 -23 9 -2
-4 15 -1 24 10 28 13 5 13 9 3 23 -12 14 -11 15 5 2 18 -14 18 -16 1 -28 -17
-12 -17 -13 0 -13 10 0 15 -5 11 -12 -4 -7 0 -5 9 5 8 11 12 26 9 34 -5 13 -3
13 16 3 21 -11 21 -12 5 -24 -13 -10 -14 -15 -4 -21 9 -5 11 -4 6 3 -4 7 -3
12 2 12 4 0 18 9 30 20 12 12 22 16 22 10 0 -5 3 -9 8 -9 21 4 32 -2 26 -13
-6 -10 -5 -10 8 -1 8 7 18 10 21 6 4 -3 7 -1 7 6 0 7 -9 15 -21 18 -16 4 -17
8 -7 14 16 11 31 12 25 2 -3 -5 1 -14 9 -21 12 -11 14 -9 14 8 0 11 4 20 10
20 5 0 6 -8 3 -17 -5 -13 -2 -15 11 -10 10 4 20 7 22 7 2 0 4 403 4 895 l0
895 -3840 0 -3840 0 0 -235z m1070 -1035 c0 -5 -4 -10 -10 -10 -5 0 -10 5 -10
10 0 6 5 10 10 10 6 0 10 -4 10 -10z m113 -109 c36 -22 41 -41 10 -41 -9 0
-22 8 -29 17 -7 10 -16 15 -20 11 -4 -4 -1 -14 6 -23 10 -12 9 -16 -3 -21 -13
-5 -14 -9 -4 -25 10 -17 9 -22 -6 -30 -14 -8 -16 -14 -6 -25 9 -12 5 -14 -25
-14 -23 0 -43 -7 -56 -20 -15 -15 -28 -19 -48 -14 -34 8 -72 31 -72 45 0 6 5
7 10 4 6 -3 10 -3 10 2 0 16 -15 31 -34 34 -10 2 -27 19 -37 38 l-18 34 27 24
c18 15 37 23 57 21 17 -1 40 4 53 11 28 15 42 7 42 -25 0 -13 4 -24 10 -24 5
0 7 -6 4 -13 -4 -10 3 -12 26 -9 22 3 30 10 31 26 2 28 2 28 -7 51 -8 19 -7
19 16 4 14 -8 42 -25 63 -38z m6292 -381 c-3 -5 -12 -10 -18 -10 -7 0 -6 4 3
10 19 12 23 12 15 0z m-1365 -4 c0 -11 -19 -15 -25 -6 -3 5 1 10 9 10 9 0 16
-2 16 -4z m315 -6 c3 -5 1 -10 -4 -10 -6 0 -11 5 -11 10 0 6 2 10 4 10 3 0 8
-4 11 -10z m191 -2 c4 -7 4 -10 -1 -6 -4 4 -15 2 -24 -5 -14 -11 -14 -10 -2 6
16 20 18 21 27 5z m-93 -13 c-3 -9 -8 -14 -10 -11 -3 3 -2 9 2 15 9 16 15 13
8 -4z m321 -14 c-2 -3 -12 3 -22 13 -16 17 -16 18 5 5 12 -7 20 -15 17 -18z
m561 10 c3 -5 1 -12 -5 -16 -5 -3 -10 1 -10 9 0 18 6 21 15 7z m-595 -29 c-6
-2 -6 -11 1 -25 9 -20 9 -20 -4 -5 -8 10 -18 14 -23 10 -4 -4 -3 0 4 9 9 12 9
18 -1 28 -9 10 -6 10 11 0 12 -8 18 -15 12 -17z m-2641 -96 c54 -80 62 -96 58
-113 -3 -14 -7 -11 -17 13 -7 17 -23 35 -34 40 -14 6 -20 17 -19 32 2 14 -6
28 -23 39 -24 15 -74 83 -74 100 0 12 81 -70 109 -111z m2596 82 c1 -22 -2
-24 -17 -14 -19 11 -23 28 -11 40 13 13 28 -1 28 -26z m-258 0 c-3 -8 -6 -5
-6 6 -1 11 2 17 5 13 3 -3 4 -12 1 -19z m472 -11 c-15 -15 -48 -17 -43 -2 3 6
16 12 30 13 19 1 22 -1 13 -11z m-229 -17 c0 -5 -4 -10 -10 -10 -5 0 -10 5
-10 10 0 6 5 10 10 10 6 0 10 -4 10 -10z m-2622 -81 c-2 -9 3 -23 11 -32 20
-25 0 -20 -34 8 -26 22 -27 25 -10 25 11 0 16 4 10 8 -11 8 -35 48 -35 59 0 4
14 -6 30 -22 17 -16 29 -37 28 -46z m-3088 -44 c0 -8 -4 -15 -10 -15 -5 0 -7
7 -4 15 4 8 8 15 10 15 2 0 4 -7 4 -15z m3150 -30 c11 -13 10 -14 -4 -9 -9 3
-16 10 -16 15 0 13 6 11 20 -6z m-20 -465 c0 -5 -2 -10 -4 -10 -3 0 -8 5 -11
10 -3 6 -1 10 4 10 6 0 11 -4 11 -10z m-1212 -698 c8 -15 16 -33 19 -39 7 -18
-28 -17 -52 1 -17 12 -18 18 -7 40 15 33 24 33 40 -2z m22 -73 c28 -6 63 -17
76 -24 l24 -12 -29 -13 c-46 -19 -58 -38 -35 -55 31 -23 114 -39 183 -37 74 4
146 -24 160 -61 11 -28 7 -97 -7 -122 -6 -11 -13 -28 -16 -38 -3 -10 -10 -16
-15 -12 -18 11 -23 -16 -6 -35 10 -11 15 -26 12 -34 -4 -9 -3 -17 1 -20 13 -8
6 -57 -9 -66 -7 -5 -10 -12 -6 -16 4 -4 13 -2 19 4 7 7 19 12 28 12 13 0 13
-1 0 -10 -13 -8 -12 -10 3 -10 9 0 35 18 58 41 54 54 135 89 151 65 5 -7 8 -4
8 7 0 9 4 17 9 17 6 0 6 -12 1 -28 -4 -17 -4 -36 2 -47 19 -34 -14 -167 -47
-187 -7 -4 -22 -34 -36 -68 -13 -33 -29 -60 -36 -60 -7 0 -13 -5 -13 -11 0
-26 -95 -89 -133 -89 -9 0 -24 -11 -34 -24 -26 -32 -53 -35 -86 -9 -23 18 -28
30 -29 65 0 24 -4 48 -8 53 -5 6 -7 26 -5 45 2 27 7 35 21 35 25 0 46 26 33
40 -7 7 -15 4 -23 -7 -7 -10 -19 -18 -26 -18 -7 0 -3 8 9 18 18 15 19 19 6 36
-8 11 -15 14 -15 8 0 -7 -5 -12 -10 -12 -6 0 -9 3 -8 8 2 8 -23 64 -32 72 -3
3 -41 49 -84 103 -55 69 -101 142 -156 250 -100 196 -98 190 -61 227 33 34 72
38 161 19z m-214 -636 c7 -10 14 -24 14 -30 0 -19 -37 -16 -44 3 -16 42 5 60
30 27z m1948 -464 c-8 -13 -24 -1 -24 18 0 13 3 13 15 3 8 -7 12 -16 9 -21z
m-134 -25 c10 -11 23 -14 50 -9 35 6 39 4 81 -46 26 -31 43 -61 42 -73 -2 -12
0 -15 3 -8 11 24 19 11 19 -33 0 -43 -9 -61 -51 -96 -22 -18 -64 -70 -64 -79
0 -3 -10 -7 -22 -7 -13 -1 -18 1 -11 5 8 5 9 13 3 22 -6 10 -12 11 -18 5 -17
-18 -69 -119 -87 -170 -10 -27 -27 -60 -37 -71 -17 -19 -19 -33 -14 -120 2
-55 0 -106 -5 -116 -6 -11 -6 -18 0 -18 5 0 11 5 13 12 2 6 12 -7 21 -29 19
-49 12 -88 -49 -250 -75 -201 -132 -298 -155 -262 -9 15 -20 -6 -53 -104 -34
-101 -105 -227 -214 -375 -130 -178 -217 -304 -235 -337 -22 -44 -114 -110
-146 -106 -48 6 -172 -10 -168 -22 3 -7 9 -11 15 -10 6 2 14 -6 17 -17 6 -19
7 -19 43 -1 20 10 53 21 72 24 l35 7 -25 -20 c-14 -11 -45 -32 -70 -47 -25
-14 -63 -38 -85 -53 -22 -15 -48 -30 -59 -34 -18 -6 -18 -5 -2 19 23 35 13 45
-42 45 -66 0 -115 27 -123 67 -7 36 26 140 85 267 20 43 36 93 36 110 l-1 31
-21 -40 c-12 -22 -47 -98 -78 -170 -64 -150 -105 -222 -115 -206 -3 6 -11 9
-16 6 -14 -9 -11 -25 5 -25 9 0 12 -8 8 -25 -5 -29 -22 -34 -22 -6 0 21 -13
22 -47 3 -37 -21 -29 12 16 61 36 40 171 230 171 242 0 3 9 24 20 48 29 63 90
225 105 282 19 69 20 94 7 140 -6 22 -14 69 -18 105 -4 36 -9 57 -12 48 -2
-10 -7 -18 -12 -18 -4 0 -10 -8 -14 -17 -3 -10 -11 -25 -17 -34 -10 -13 -8
-22 9 -46 23 -32 20 -43 -9 -43 -10 0 -28 -13 -40 -29 -12 -16 -30 -32 -40
-34 -11 -3 -19 -11 -19 -19 0 -10 3 -9 10 2 8 12 12 12 18 2 7 -10 17 -4 40
22 17 20 34 31 37 26 3 -6 2 -10 -4 -10 -5 0 -24 -20 -42 -45 -19 -27 -38 -44
-46 -41 -10 4 -12 -1 -7 -19 5 -21 3 -25 -15 -25 -13 0 -21 -6 -21 -17 0 -16
-2 -16 -11 -3 -8 12 -10 12 -8 -5 3 -30 -11 -55 -31 -55 -11 0 -20 -10 -24
-26 -5 -17 -12 -24 -21 -20 -10 4 -15 -1 -15 -15 0 -11 -6 -22 -14 -25 -8 -3
-17 -13 -20 -21 -6 -14 -3 -14 18 1 35 22 46 20 16 -4 -14 -11 -35 -20 -46
-20 -17 0 -21 -5 -19 -25 2 -17 -2 -25 -11 -25 -9 0 -12 -4 -9 -10 3 -5 -1
-10 -9 -10 -9 0 -16 -4 -16 -9 0 -5 -9 -13 -20 -16 -11 -3 -20 -13 -20 -21 0
-7 -13 -26 -30 -41 -16 -14 -30 -30 -30 -35 0 -9 -11 -24 -42 -59 -10 -10 -18
-22 -18 -26 0 -5 -5 -15 -12 -24 -32 -39 -58 -79 -58 -89 0 -6 -11 -26 -25
-44 -20 -26 -22 -35 -12 -46 10 -10 9 -12 -6 -7 -11 4 -17 2 -16 -6 3 -26 -1
-38 -13 -31 -7 4 -8 3 -4 -5 9 -14 -32 -103 -44 -96 -5 3 -7 -11 -5 -30 2 -23
-1 -35 -8 -34 -7 1 -20 -1 -30 -6 -27 -12 -31 1 -8 24 12 12 21 27 21 35 0 8
4 17 9 20 5 3 12 18 16 33 3 16 13 35 20 43 8 8 19 38 26 65 17 75 39 121 72
157 16 18 35 47 42 63 7 17 25 43 39 58 14 15 26 32 26 37 0 8 23 34 145 160
34 36 71 81 81 100 20 37 21 41 23 78 1 15 29 51 81 101 44 42 80 80 80 83 0
3 -9 4 -20 1 -11 -3 -20 -12 -20 -21 0 -21 -6 -12 -14 21 -5 21 -3 27 9 27 9
0 14 4 11 9 -12 19 27 129 64 184 30 43 38 65 34 82 -4 16 1 34 13 52 11 15
23 36 26 46 4 10 11 15 17 12 6 -3 7 1 4 9 -4 9 0 18 9 22 9 3 14 11 11 18 -9
23 53 92 109 121 l56 30 56 -28 c37 -19 101 -37 195 -54 l140 -26 21 24 c13
16 19 18 16 7 -10 -29 31 -28 91 3 93 47 162 124 162 180 0 11 8 32 19 47 10
15 24 52 31 83 12 56 12 58 -24 143 -55 128 -57 168 -12 279 39 96 95 183 124
194 9 4 20 11 24 17 5 8 11 7 20 -2 10 -10 10 -17 0 -32 -14 -23 -10 -25 21
-9 51 26 67 51 67 101 0 49 13 88 29 88 5 0 14 -7 21 -16z m838 -133 c1 -68
-16 -108 -65 -150 -25 -23 -52 -41 -60 -41 -8 0 -12 -4 -9 -8 3 -5 -7 -17 -21
-28 -15 -10 -32 -25 -39 -31 -27 -27 -23 20 6 82 16 35 30 66 30 69 0 12 52
56 66 56 8 0 11 6 8 15 -4 8 -2 15 4 15 5 0 15 14 22 30 14 35 41 54 51 38 4
-6 7 -27 7 -47z m-1468 -655 c0 -2 -7 -6 -15 -10 -8 -3 -15 -1 -15 4 0 6 7 10
15 10 8 0 15 -2 15 -4z m60 -65 c0 -12 -41 -22 -54 -13 -6 3 0 9 14 13 36 10
40 10 40 0z m4 -45 c16 4 26 2 26 -5 0 -6 8 -11 18 -11 14 0 15 -2 2 -10 -13
-8 -12 -10 3 -10 24 0 12 -46 -20 -80 -20 -20 -26 -22 -34 -10 -6 11 -9 11
-10 3 -1 -7 -2 -18 -3 -25 -2 -21 -27 -20 -33 1 -3 12 -11 21 -19 21 -19 0
-29 21 -13 31 11 6 10 11 -4 27 -9 10 -17 25 -16 33 0 10 2 10 6 2 2 -7 11
-13 18 -13 7 0 15 -10 18 -22 5 -19 8 -20 23 -7 16 13 16 14 1 17 -10 2 -17
10 -17 17 0 7 -6 15 -12 18 -10 3 -10 7 1 20 10 13 17 14 26 7 7 -6 25 -8 39
-4z m110 -80 c-3 -9 -10 -13 -16 -10 -5 3 -4 12 3 20 15 18 22 13 13 -10z m28
-48 c-15 -15 -24 -6 -16 16 5 12 10 14 17 7 8 -8 8 -14 -1 -23z m-67 2 c5 -8
11 -7 21 1 12 10 13 8 6 -12 -10 -26 -38 -37 -54 -21 -12 12 -4 42 11 42 5 0
13 -5 16 -10z m-174 -53 c-16 -16 -25 -1 -10 16 8 8 16 11 18 5 2 -5 -2 -15
-8 -21z m-3421 -23 c0 -17 -14 -18 -42 -3 -15 8 -17 13 -8 19 17 11 50 0 50
-16z m510 -39 c-7 -8 -16 -12 -21 -9 -13 8 -1 24 18 24 13 0 13 -3 3 -15z
m-170 -25 c0 -12 -28 -25 -36 -17 -9 9 6 27 22 27 8 0 14 -5 14 -10z m127 -10
c-3 -11 -1 -18 4 -14 5 3 9 -1 9 -8 0 -8 -12 -15 -27 -16 -19 -1 -24 1 -15 7
11 6 10 10 -3 15 -14 5 -15 9 -5 21 19 23 43 19 37 -5z m-187 -45 c17 0 22
-15 6 -21 -9 -3 -16 -12 -16 -19 0 -8 -13 -20 -29 -28 -24 -12 -31 -12 -35 -2
-2 7 2 21 9 32 8 10 15 27 15 39 0 30 13 38 28 17 7 -10 17 -18 22 -18z m-490
-29 c0 -7 -7 -19 -15 -26 -8 -7 -12 -16 -9 -21 3 -5 0 -9 -5 -9 -14 0 -14 26
-1 51 12 22 30 25 30 5z m693 -57 l21 -12 -24 -10 c-41 -16 -70 -17 -70 -2 0
13 26 34 43 35 5 0 18 -5 30 -11z m-219 -34 c8 -9 18 -16 21 -15 23 1 27 -3 8
-10 -15 -6 -20 -15 -16 -29 4 -16 -1 -23 -21 -31 -23 -8 -26 -15 -26 -55 0
-41 -2 -45 -22 -41 -18 2 -22 9 -20 27 1 13 3 41 3 61 0 39 20 64 41 52 10 -5
11 -4 1 7 -32 34 -2 67 31 34z m-454 -26 c0 -5 -4 -9 -10 -9 -5 0 -10 7 -10
16 0 8 5 12 10 9 6 -3 10 -10 10 -16z m-22 -45 c12 -4 22 -13 22 -20 0 -14 12
-18 38 -15 6 1 12 -3 12 -8 0 -6 11 -21 25 -34 25 -23 28 -30 46 -115 5 -24
15 -55 22 -70 27 -53 45 -97 52 -125 5 -25 3 -28 -15 -25 -12 2 -27 14 -34 28
-7 14 -21 39 -30 57 -9 17 -16 39 -16 48 0 9 -11 31 -25 47 -14 16 -23 34 -20
39 4 5 0 6 -8 3 -17 -6 -30 33 -13 40 6 2 3 5 -6 5 -9 1 -21 7 -25 15 -4 8
-25 32 -45 55 -39 41 -47 66 -25 74 17 7 19 7 45 1z m697 -33 c-3 -12 -10 -19
-15 -16 -5 3 -10 -1 -13 -7 -3 -10 -8 -10 -18 1 -9 9 -10 11 -1 7 7 -4 15 0
19 11 7 19 25 35 31 28 2 -2 1 -13 -3 -24z m-145 -37 c0 -14 -12 -19 -23 -8
-9 9 4 35 14 28 5 -3 9 -12 9 -20z m29 -43 c7 -5 14 -20 14 -35 0 -14 3 -26 8
-26 5 0 9 5 9 12 0 8 3 9 10 2 16 -16 2 -41 -20 -39 -11 1 -23 5 -27 9 -4 4
-15 -3 -24 -15 -13 -18 -19 -20 -37 -10 -29 15 -28 35 2 55 14 8 27 25 31 36
7 22 13 24 34 11z m-574 -131 c-3 -5 -11 -10 -16 -10 -6 0 -7 5 -4 10 3 6 11
10 16 10 6 0 7 -4 4 -10z m583 -20 c-7 -11 -16 -20 -20 -20 -13 0 -9 28 5 33
23 10 27 7 15 -13z m-548 -41 c0 -5 -11 -9 -25 -9 -28 0 -34 16 -7 23 20 4 32
-1 32 -14z m228 -54 c-3 -3 -9 2 -12 12 -6 14 -5 15 5 6 7 -7 10 -15 7 -18z
m2382 -20 c0 -8 -8 -23 -17 -33 -10 -10 -19 -25 -21 -33 -2 -8 -12 -22 -23
-31 -12 -10 -17 -23 -13 -29 4 -7 3 -9 -3 -6 -11 7 -37 -16 -28 -25 3 -2 -11
-20 -30 -38 -19 -19 -35 -42 -35 -52 0 -10 -7 -21 -15 -24 -8 -4 -15 -15 -15
-25 0 -10 -7 -19 -15 -19 -8 0 -15 2 -15 5 0 6 47 78 63 95 8 8 17 28 21 44 4
15 12 34 19 42 7 7 35 42 62 78 51 67 65 77 65 51z m223 -105 c-9 -16 -21 -30
-25 -30 -12 0 -10 9 10 35 25 35 36 31 15 -5z m-2583 -11 c0 -5 -4 -9 -10 -9
-5 0 -10 7 -10 16 0 8 5 12 10 9 6 -3 10 -10 10 -16z m40 -69 c0 -11 5 -20 10
-20 6 0 10 -5 10 -12 0 -7 -6 -6 -17 4 -10 9 -24 13 -30 11 -13 -5 -18 19 -6
30 13 14 33 6 33 -13z m3717 -26 c-3 -3 -12 -4 -19 -1 -8 3 -5 6 6 6 11 1 17
-2 13 -5z m-3620 -36 c-3 -8 -6 -5 -6 6 -1 11 2 17 5 13 3 -3 4 -12 1 -19z
m-16 -31 c9 -12 20 -33 24 -47 7 -25 7 -25 -25 5 -17 17 -36 38 -41 48 -15 26
22 22 42 -6z m5042 -35 c9 -9 18 -37 21 -60 3 -24 10 -50 17 -58 10 -12 8 -13
-15 -5 -78 30 -96 48 -96 95 0 44 43 61 73 28z m-3037 -38 c-3 -9 -6 -20 -6
-25 0 -6 -4 -8 -9 -5 -12 8 -2 46 11 46 6 0 7 -7 4 -16z m11 -164 c-9 -14 -17
-17 -22 -11 -3 6 -2 11 4 11 5 0 13 10 17 23 4 12 9 16 11 10 3 -7 -2 -22 -10
-33z m-46 -102 c-6 -10 -11 -30 -11 -44 0 -27 0 -27 -20 -9 -14 12 -17 21 -9
25 6 4 10 10 10 14 -1 3 2 25 5 47 l7 42 15 -28 c11 -22 12 -33 3 -47z m-1697
-13 c3 -8 1 -15 -4 -15 -6 0 -10 7 -10 15 0 8 2 15 4 15 2 0 6 -7 10 -15z
m2161 5 c-3 -5 -12 -10 -18 -10 -7 0 -6 4 3 10 19 12 23 12 15 0z m-62 -49
c-7 -28 -63 -39 -63 -12 0 9 38 29 57 30 6 1 9 -7 6 -18z m-442 -44 c-6 -15
-15 -27 -21 -27 -6 0 -9 -4 -6 -9 3 -4 -3 -16 -14 -26 -11 -10 -17 -21 -15
-25 3 -4 -2 -10 -10 -14 -8 -3 -15 -12 -15 -21 0 -8 -5 -15 -11 -15 -6 0 3 24
20 53 18 28 39 69 49 89 19 41 39 37 23 -5z m-1526 -97 c3 -5 1 -10 -4 -10 -6
0 -11 5 -11 10 0 6 2 10 4 10 3 0 8 -4 11 -10z m1428 -80 c-17 -29 -41 -43
-29 -17 3 6 9 20 12 30 4 9 13 17 21 17 12 0 11 -5 -4 -30z m37 -29 c-7 -14
-7 -28 0 -47 9 -22 7 -33 -12 -59 -13 -20 -28 -31 -36 -27 -12 4 -12 1 -2 -18
8 -15 8 -20 1 -16 -9 6 -15 -4 -13 -25 1 -3 -8 -5 -20 -5 -16 1 -21 -6 -23
-34 -2 -19 -8 -36 -14 -38 -6 -2 -11 -10 -11 -17 0 -14 -58 -126 -70 -135 -4
-3 -13 -22 -20 -42 -8 -20 -18 -34 -23 -31 -6 4 -8 -3 -5 -15 4 -15 2 -22 -8
-22 -8 0 -14 -2 -14 -4 0 -2 -3 -12 -7 -22 -5 -13 -3 -15 8 -9 8 5 5 -1 -5
-13 -11 -12 -15 -22 -11 -22 5 0 -1 -10 -13 -23 -12 -13 -19 -27 -15 -30 3 -4
-5 -17 -19 -29 -14 -13 -29 -34 -33 -48 -4 -14 -12 -31 -17 -37 -6 -7 -8 -19
-5 -28 4 -8 1 -17 -5 -21 -7 -5 -8 -2 -3 6 5 8 3 11 -6 8 -8 -3 -14 -18 -13
-34 0 -16 -5 -33 -13 -37 -7 -5 -10 -13 -7 -19 4 -6 3 -13 -2 -17 -22 -16 -53
-71 -48 -85 3 -9 1 -16 -5 -16 -6 0 -14 -18 -17 -40 -4 -22 -10 -40 -14 -40
-5 0 -6 -9 -3 -20 3 -11 0 -20 -6 -20 -6 0 -11 -9 -11 -20 0 -11 -7 -23 -15
-26 -10 -4 -13 -13 -10 -24 3 -10 1 -21 -5 -25 -5 -3 -10 -18 -10 -32 0 -14
-6 -31 -14 -37 -16 -13 -32 -71 -16 -61 14 9 12 -16 -5 -45 -8 -14 -14 -41
-15 -61 0 -20 -6 -42 -14 -48 -7 -6 -11 -22 -8 -36 2 -14 -3 -35 -11 -48 -8
-13 -16 -37 -18 -53 -2 -16 -6 -33 -10 -39 -3 -5 -12 -27 -18 -47 -12 -37 -48
-57 -37 -20 3 9 7 28 10 42 24 120 94 369 116 411 5 9 12 34 16 55 3 22 12 46
18 54 7 8 22 50 34 92 12 43 37 108 55 145 34 70 69 158 67 168 0 3 23 49 51
103 92 170 109 205 109 219 0 7 5 13 11 13 6 0 9 7 5 15 -3 8 -1 15 4 15 6 0
10 9 10 21 0 11 5 17 10 14 9 -6 35 41 32 58 -1 4 3 7 8 7 6 0 10 9 10 20 0
11 5 20 11 20 5 0 8 4 5 8 -3 5 6 20 19 34 13 14 21 28 18 32 -3 3 2 8 11 12
9 3 13 10 11 15 -6 8 18 52 42 77 6 6 15 22 18 33 8 25 45 89 51 89 3 0 0 -9
-6 -19z m-60 -20 c0 -5 -7 -11 -14 -14 -10 -4 -13 -1 -9 9 6 15 23 19 23 5z
m3860 -26 c0 -8 -2 -15 -4 -15 -2 0 -6 7 -10 15 -3 8 -1 15 4 15 6 0 10 -7 10
-15z m13 -45 c3 -11 1 -18 -4 -14 -5 3 -9 12 -9 20 0 20 7 17 13 -6z m-25 -42
c18 -68 -1 -40 -23 32 -5 17 -4 22 3 15 6 -5 15 -27 20 -47z m-3904 8 c-3 -9
-10 -16 -15 -16 -5 0 -4 9 3 20 14 22 21 20 12 -4z m3982 -107 c29 -86 41
-159 27 -159 -17 0 -36 28 -30 44 3 7 0 19 -6 25 -9 9 -9 14 2 20 11 7 11 9 0
14 -12 5 -12 7 -1 15 11 7 10 10 -3 16 -11 4 -15 13 -12 26 3 10 2 20 -2 22
-5 2 -11 19 -15 38 -11 57 12 22 40 -61z m173 -6 c16 -46 25 -83 20 -83 -5 0
-12 8 -15 18 -3 9 -14 40 -24 67 -27 74 -34 102 -22 90 6 -5 24 -47 41 -92z
m-4189 47 c0 -5 -7 -7 -15 -4 -8 4 -12 10 -9 15 6 11 24 2 24 -11z m-37 -43
c3 -8 -1 -14 -9 -14 -15 0 -18 9 -7 20 9 9 10 9 16 -6z m-1042 -235 c5 -2 18
-20 28 -40 10 -21 26 -51 35 -68 9 -17 27 -82 41 -145 14 -63 31 -127 38 -144
6 -16 10 -34 9 -40 -2 -5 2 -45 9 -89 6 -43 13 -86 14 -95 1 -9 4 -27 8 -41 8
-30 18 -116 23 -185 2 -27 6 -86 9 -130 2 -44 9 -111 14 -150 4 -38 8 -79 8
-90 0 -11 3 -33 7 -50 15 -66 19 -145 7 -159 -9 -11 -8 -15 3 -19 9 -4 15 -19
16 -34 0 -15 3 -67 6 -115 5 -73 9 -87 25 -91 25 -7 25 -43 -1 -57 -12 -6 -20
-21 -20 -37 0 -22 2 -24 15 -13 13 11 14 10 9 -3 -5 -14 -33 -31 -40 -25 -3 4
-12 116 -13 164 -1 17 -10 41 -21 54 -24 28 -25 39 -4 55 13 9 14 16 5 33 -7
14 -8 23 -1 27 17 11 11 23 -15 29 -51 13 -75 -30 -42 -72 9 -11 4 -12 -25 -7
-33 6 -36 5 -41 -22 -4 -21 0 -32 14 -43 15 -12 17 -18 8 -27 -17 -17 -39 -4
-39 23 0 16 -4 22 -14 18 -7 -3 -21 2 -29 11 -14 13 -20 14 -37 3 -27 -17 -27
-42 0 -35 21 5 60 -26 60 -47 -1 -31 -14 -56 -31 -56 -27 0 -29 -12 -13 -58
11 -34 12 -46 1 -62 -10 -17 -9 -22 1 -29 12 -7 11 -13 -1 -37 -14 -29 -14
-36 0 -109 6 -30 13 -40 27 -40 30 0 30 -24 1 -35 -23 -9 -26 -14 -20 -38 4
-15 12 -30 18 -34 6 -4 12 -31 12 -60 1 -48 3 -53 23 -51 30 4 27 -12 -7 -38
-34 -25 -34 -54 0 -54 21 0 24 -4 21 -30 -2 -16 -7 -32 -12 -35 -5 -3 -7 -19
-4 -35 2 -17 5 -39 7 -50 1 -13 12 -21 35 -26 47 -9 49 -15 17 -46 -15 -16
-32 -40 -37 -55 -14 -38 -39 -29 -66 25 -19 39 -25 68 -29 165 -2 64 -9 128
-14 142 -5 14 -11 97 -13 185 -2 97 -9 190 -19 237 -9 43 -19 141 -22 219 -3
78 -8 146 -12 152 -3 5 -7 28 -8 50 -2 23 -6 87 -10 143 -7 99 -6 102 19 129
26 28 38 61 14 37 -31 -31 -35 -13 -39 166 -6 335 -2 465 13 456 11 -7 10 34
-2 56 -7 13 -7 21 0 25 6 4 7 11 3 18 -3 6 -8 128 -9 271 -2 144 -6 288 -9
322 -3 33 -2 64 2 68 4 4 25 -46 46 -111 21 -65 42 -120 48 -121z m5309 134
c0 -3 -4 -8 -10 -11 -5 -3 -10 -1 -10 4 0 6 5 11 10 11 6 0 10 -2 10 -4z m10
-36 c0 -5 -2 -10 -4 -10 -3 0 -8 5 -11 10 -3 6 -1 10 4 10 6 0 11 -4 11 -10z
m25 -649 c-3 -6 -11 -11 -16 -11 -5 0 -4 6 3 14 14 16 24 13 13 -3z m235 -70
c0 -5 -5 -13 -12 -17 -7 -5 -8 -3 -3 6 6 10 4 12 -10 6 -16 -6 -16 -4 -4 10
12 15 11 16 -11 10 -21 -6 -22 -5 -7 4 9 6 14 17 11 23 -4 7 3 2 15 -10 11
-12 21 -27 21 -32z m-4210 -145 c0 -2 -6 -15 -12 -28 -11 -20 -16 -22 -35 -13
-21 11 -21 13 -5 28 14 15 52 24 52 13z m-60 -66 c6 0 10 -4 10 -10 0 -5 -7
-10 -15 -10 -8 0 -15 5 -15 11 0 7 -7 17 -16 23 -10 8 -13 18 -8 31 7 17 9 16
21 -13 7 -18 18 -32 23 -32z m-162 -250 c15 -1 15 -2 -1 -15 -16 -12 -23 -11
-53 3 -31 16 -44 32 -26 32 5 0 20 9 33 21 l24 21 3 -31 c2 -21 9 -31 20 -31z
m-73 -25 c12 0 15 -54 4 -61 -18 -10 -8 -24 16 -24 14 0 25 5 25 10 0 6 7 10
15 10 22 0 18 -17 -6 -30 -23 -13 -21 -32 5 -36 26 -4 30 -12 16 -30 -11 -12
-11 -17 -1 -23 7 -5 10 -18 6 -32 -4 -17 0 -32 15 -49 24 -28 9 -41 -19 -16
-10 9 -23 16 -30 16 -9 0 -11 8 -6 27 5 23 4 25 -9 14 -21 -18 -20 -40 3 -60
23 -20 18 -71 -8 -71 -12 0 -10 -5 9 -20 14 -11 30 -19 35 -19 25 3 35 -2 35
-17 0 -12 -4 -14 -12 -6 -15 11 -77 21 -79 13 -1 -3 -3 -16 -4 -29 -3 -27 -15
-42 -15 -19 0 28 -15 19 -39 -23 -21 -38 -20 -44 4 -41 6 1 1 -6 -9 -14 -35
-27 -89 2 -68 36 18 29 5 43 -24 25 -34 -23 -38 -19 -10 11 14 15 22 31 19 37
-4 6 -8 6 -11 -2 -3 -11 -53 -42 -67 -42 -10 0 -4 35 10 54 8 11 15 31 15 44
0 13 5 32 11 43 5 11 20 57 31 102 11 45 27 91 34 102 8 11 14 27 14 36 0 10
4 19 8 21 4 2 18 20 31 41 14 23 27 34 34 30 7 -4 17 -8 22 -8z m45 -35 c0 -5
-5 -10 -11 -10 -5 0 -7 5 -4 10 3 6 8 10 11 10 2 0 4 -4 4 -10z m-605 -180
c11 -5 15 -9 9 -9 -6 -1 -14 -24 -17 -53 -4 -28 -11 -56 -16 -61 -6 -6 -6 -19
-1 -33 6 -14 6 -26 0 -29 -6 -4 -8 -16 -5 -28 7 -27 -17 -99 -34 -105 -15 -5
-13 22 13 173 8 50 13 105 11 123 -4 34 3 38 40 22z m695 -20 c0 -11 5 -20 10
-20 6 0 10 -6 10 -13 0 -8 -6 -14 -14 -14 -8 0 -12 6 -9 13 2 7 -5 19 -16 26
-26 16 -27 28 -1 28 13 0 20 -7 20 -20z m-60 -226 c0 -8 -4 -14 -10 -14 -5 0
-10 -7 -10 -15 0 -8 5 -15 11 -15 8 0 8 -4 -1 -15 -6 -8 -9 -18 -7 -23 9 -13
-10 -35 -22 -27 -9 5 -9 10 -1 20 12 15 6 35 -11 35 -5 0 -9 -7 -9 -16 0 -9
-6 -14 -12 -11 -7 2 -12 15 -10 27 3 31 10 36 24 22 19 -19 27 -14 24 16 -2
15 -2 30 1 34 6 12 33 -3 33 -18z m-273 -50 c-5 -30 15 -48 44 -39 20 7 21 5
15 -29 -4 -20 -4 -42 1 -49 12 -19 13 -40 1 -54 -6 -7 -8 -25 -5 -40 4 -21 -2
-33 -24 -54 -31 -29 -39 -55 -14 -45 21 8 19 -7 -6 -38 -17 -22 -18 -26 -4
-26 21 0 30 -27 15 -45 -6 -8 -9 -19 -6 -24 7 -11 -24 -31 -48 -31 -9 0 -16 7
-16 15 0 8 -4 15 -10 15 -5 0 -10 -7 -10 -15 0 -8 4 -15 9 -15 13 0 20 -25 14
-49 -4 -15 -11 -20 -23 -16 -14 4 -19 -1 -22 -25 -3 -17 -1 -33 4 -36 4 -3 1
-15 -7 -27 -13 -19 -13 -24 1 -44 13 -21 13 -25 -1 -39 -9 -10 -13 -24 -9 -39
3 -13 0 -34 -7 -47 -7 -12 -12 -29 -11 -35 2 -7 -3 -13 -9 -13 -7 0 -9 -3 -6
-7 4 -3 2 -12 -4 -20 -8 -9 -8 -17 -1 -25 5 -7 13 -23 16 -34 6 -19 3 -22 -18
-20 -24 1 -25 4 -25 62 1 34 7 73 14 87 11 22 11 25 -1 20 -11 -4 -11 2 -3 29
6 18 10 52 10 75 -1 23 4 54 10 70 6 15 12 51 14 78 1 28 8 73 14 100 7 28 14
68 16 89 2 21 8 43 13 48 6 6 8 27 5 48 -5 35 6 84 38 168 7 17 5 22 -8 22
-14 0 -14 2 1 19 10 11 15 25 11 31 -8 14 14 42 27 34 5 -4 8 -17 5 -30z
m-426 -74 c-6 -32 -8 -33 -18 -15 -9 16 -8 24 4 38 21 22 23 19 14 -23z m595
13 c-9 -9 15 -34 25 -27 11 6 12 -36 1 -52 -8 -13 -42 -15 -42 -2 0 4 5 8 12
8 6 0 3 8 -8 19 -13 13 -24 16 -36 10 -25 -13 -28 -11 -28 20 0 16 -6 32 -12
35 -7 3 -1 3 13 0 15 -3 30 -1 34 5 4 8 12 8 26 0 12 -6 18 -13 15 -16z m-906
-14 c0 -10 9 -28 20 -39 12 -12 18 -25 15 -30 -9 -14 -35 -12 -35 2 0 6 -7 19
-15 29 -11 11 -14 26 -9 43 7 29 24 26 24 -5z m60 -18 c-1 -25 -1 -25 -15 -7
-19 26 -19 47 0 40 8 -4 15 -18 15 -33z m208 27 c-3 -7 -11 -13 -18 -13 -7 0
-15 6 -17 13 -3 7 4 12 17 12 13 0 20 -5 18 -12z m46 -79 c-3 -5 -10 -7 -15
-3 -5 3 -7 10 -3 15 3 5 10 7 15 3 5 -3 7 -10 3 -15z m566 -29 c0 -3 -6 -12
-12 -19 -10 -11 -10 -14 0 -18 6 -3 12 -9 12 -15 0 -5 -6 -8 -12 -5 -7 2 -22
0 -32 -6 -16 -8 -18 -7 -11 9 4 11 10 29 12 41 3 14 12 21 24 20 10 -1 19 -4
19 -7z m-554 -16 c-3 -9 -6 -20 -6 -25 0 -5 -7 -9 -15 -9 -18 0 -19 4 -3 30
15 24 33 27 24 4z m-284 -42 c-6 -2 -12 -14 -12 -26 0 -29 -7 -35 -30 -29 -14
4 -17 10 -11 22 5 9 14 29 20 44 11 27 12 27 28 11 13 -13 14 -19 5 -22z m183
-51 c-3 -12 -11 -21 -16 -21 -10 0 -12 43 -2 54 12 12 25 -11 18 -33z m589 14
c-4 -8 -10 -15 -15 -15 -4 0 -6 7 -3 15 4 8 10 15 15 15 4 0 6 -7 3 -15z
m-520 -26 c-10 -16 -24 -9 -24 12 0 18 2 19 15 9 8 -7 12 -16 9 -21z m630 -5
c7 -19 -10 -27 -32 -15 -13 7 -22 7 -30 -1 -14 -14 -27 -4 -19 14 6 18 74 20
81 2z m-617 -22 c-19 -20 -23 -52 -7 -52 6 0 10 -4 10 -10 0 -5 -8 -10 -17
-10 -14 0 -18 9 -20 40 -1 33 2 40 18 40 10 0 19 5 19 12 0 6 3 8 7 5 3 -4 -1
-15 -10 -25z m-247 -34 c0 -5 -5 -8 -11 -8 -6 0 -9 -7 -5 -15 3 -8 1 -15 -4
-15 -6 0 -10 5 -10 10 0 6 -9 10 -19 10 -29 0 -36 18 -16 40 16 18 19 18 41 2
13 -9 24 -20 24 -24z m834 -2 c-3 -9 -13 -16 -22 -16 -13 0 -12 3 3 20 20 23
29 21 19 -4z m-80 -21 c3 -8 1 -15 -4 -15 -6 0 -10 7 -10 15 0 8 2 15 4 15 2
0 6 -7 10 -15z m-717 -37 c-2 -22 -8 -33 -24 -39 -33 -12 -38 7 -10 35 18 18
22 27 13 36 -8 8 -7 10 6 5 11 -4 16 -17 15 -37z m194 -19 c16 -8 18 -13 8
-25 -6 -8 -18 -14 -26 -14 -12 0 -13 3 -4 13 8 10 7 17 -1 25 -15 15 -3 15 23
1z m502 -26 c-10 -28 -24 -43 -40 -43 -11 0 -9 7 7 30 23 33 43 40 33 13z m57
-13 c0 -5 -5 -10 -11 -10 -5 0 -7 5 -4 10 3 6 8 10 11 10 2 0 4 -4 4 -10z
m-82 -99 c-9 -15 -16 -17 -30 -10 -24 13 -17 24 16 27 23 2 25 0 14 -17z m-73
-21 c3 -5 1 -10 -4 -10 -6 0 -11 5 -11 10 0 6 2 10 4 10 3 0 8 -4 11 -10z m45
-34 c0 -8 -4 -17 -9 -20 -10 -7 -23 19 -14 28 11 11 23 6 23 -8z m45 -66 c3
-5 1 -10 -4 -10 -6 0 -11 5 -11 10 0 6 2 10 4 10 3 0 8 -4 11 -10z m75 -50 c0
-13 -11 -13 -30 0 -12 8 -11 10 8 10 12 0 22 -4 22 -10z m-146 -42 c-5 -15 -3
-19 7 -13 11 6 11 5 2 -5 -6 -7 -16 -9 -22 -6 -12 8 -15 39 -5 49 13 12 25 -5
18 -25z m-704 -45 c0 -7 -7 -13 -15 -13 -15 0 -21 31 -8 43 8 8 23 -12 23 -30z
m653 -64 c3 -13 1 -19 -6 -16 -15 5 -22 37 -9 37 5 0 12 -9 15 -21z m-73 -79
c0 -5 -5 -10 -11 -10 -5 0 -7 5 -4 10 3 6 8 10 11 10 2 0 4 -4 4 -10z m-10
-70 c0 -5 -4 -10 -10 -10 -5 0 -10 5 -10 10 0 6 5 10 10 10 6 0 10 -4 10 -10z"/>
<path d="M6745 8420 c-3 -5 -1 -10 4 -10 6 0 11 5 11 10 0 6 -2 10 -4 10 -3 0
-8 -4 -11 -10z"/>
<path d="M3510 4800 c0 -5 -7 -10 -16 -10 -20 0 -13 -24 9 -28 11 -2 17 3 17
16 0 11 6 23 13 25 7 3 5 6 -5 6 -10 1 -18 -3 -18 -9z"/>
<path d="M3466 4734 c-9 -8 -14 -20 -11 -25 10 -16 25 -10 25 10 0 11 8 22 18
24 15 4 15 5 0 6 -9 0 -24 -6 -32 -15z"/>
<path d="M3486 4695 c-9 -26 -7 -32 5 -12 6 10 9 21 6 23 -2 3 -7 -2 -11 -11z"/>
<path d="M3460 4612 c0 -7 -7 -12 -15 -12 -17 0 -20 -16 -6 -25 11 -6 36 33
27 43 -3 3 -6 0 -6 -6z"/>
<path d="M3417 4123 c-11 -20 -18 -67 -8 -58 11 11 26 65 18 65 -3 0 -8 -3
-10 -7z"/>
<path d="M3490 3510 c-9 -6 -10 -10 -3 -10 6 0 15 5 18 10 8 12 4 12 -15 0z"/>
<path d="M4006 4944 c-17 -12 -17 -14 -4 -14 9 0 20 5 23 11 11 17 2 18 -19 3z"/>
<path d="M4020 4880 c-9 -6 -10 -10 -3 -10 6 0 15 5 18 10 8 12 4 12 -15 0z"/>
<path d="M1345 2220 c3 -5 8 -10 11 -10 2 0 4 5 4 10 0 6 -5 10 -11 10 -5 0
-7 -4 -4 -10z"/>
<path d="M1350 2180 c-13 -8 -13 -11 2 -27 21 -20 27 -16 19 14 -5 17 -10 20
-21 13z"/>
<path d="M1406 2065 c-3 -10 1 -15 14 -15 10 0 22 -4 25 -10 10 -17 25 -11 18
8 -12 32 -47 43 -57 17z"/>
<path d="M1405 1900 c-3 -5 -1 -10 4 -10 6 0 11 5 11 10 0 6 -2 10 -4 10 -3 0
-8 -4 -11 -10z"/>
<path d="M1399 1785 c-5 -20 -4 -32 4 -43 6 -7 7 -15 3 -19 -8 -9 32 -36 43
-29 15 9 1 45 -20 51 -17 6 -23 17 -20 38 1 8 -8 10 -10 2z"/>
<path d="M1287 1743 c-3 -5 -2 -15 2 -22 7 -10 10 -10 16 -1 4 6 3 16 -3 22
-5 5 -12 6 -15 1z"/>
<path d="M1345 1720 c3 -5 11 -10 16 -10 6 0 7 5 4 10 -3 6 -11 10 -16 10 -6
0 -7 -4 -4 -10z"/>
<path d="M1380 1689 c0 -5 5 -7 10 -4 6 3 10 8 10 11 0 2 -4 4 -10 4 -5 0 -10
-5 -10 -11z"/>
<path d="M1309 1633 c-20 -22 -21 -25 -5 -19 10 3 25 1 32 -5 7 -6 18 -8 24
-4 15 9 2 25 -15 19 -10 -4 -12 0 -8 15 7 28 1 26 -28 -6z"/>
<path d="M1310 1555 c-8 -9 -8 -15 -2 -15 12 0 26 19 19 26 -2 2 -10 -2 -17
-11z"/>
<path d="M1360 1540 c-13 -8 -12 -10 3 -10 9 0 17 5 17 10 0 12 -1 12 -20 0z"/>
<path d="M1420 1420 c0 -5 5 -10 11 -10 5 0 7 5 4 10 -3 6 -8 10 -11 10 -2 0
-4 -4 -4 -10z"/>
<path d="M1460 1311 c0 -12 6 -21 15 -21 8 0 15 4 15 9 0 5 -7 14 -15 21 -13
10 -15 9 -15 -9z"/>
<path d="M1410 1265 c-8 -9 -8 -15 -2 -15 12 0 26 19 19 26 -2 2 -10 -2 -17
-11z"/>
<path d="M1428 1213 c-21 -5 -24 -43 -5 -43 14 0 47 31 47 43 0 7 -14 7 -42 0z"/>
<path d="M1360 1138 c0 -5 5 -6 10 -3 6 3 10 1 10 -4 0 -15 25 -14 38 2 9 10
4 13 -23 14 -19 1 -35 -3 -35 -9z"/>
<path d="M1325 790 c-3 -5 -1 -10 4 -10 6 0 11 5 11 10 0 6 -2 10 -4 10 -3 0
-8 -4 -11 -10z"/>
<path d="M2347 1443 c3 -8 12 -12 19 -9 8 3 14 0 14 -6 0 -7 5 -6 15 2 24 20
18 29 -19 28 -25 -1 -33 -5 -29 -15z"/>
<path d="M2373 1388 c-16 -21 -22 -57 -10 -61 8 -2 5 -10 -6 -21 -10 -10 -15
-21 -12 -24 7 -7 36 25 54 60 21 40 -1 78 -26 46z"/>
<path d="M2309 1313 c0 -5 -2 -19 -3 -33 -2 -14 -5 -32 -7 -40 -2 -9 2 -14 9
-12 9 2 13 -7 11 -25 -3 -39 10 -66 25 -53 14 11 9 67 -6 76 -5 3 -3 12 4 22
10 12 10 16 1 19 -7 3 -13 16 -13 29 0 21 -19 36 -21 17z"/>
<path d="M2246 921 c-4 -7 -5 -15 -2 -18 9 -9 19 4 14 18 -4 11 -6 11 -12 0z"/>
<path d="M2141 762 c-5 -10 -6 -24 -1 -31 6 -11 10 -9 19 7 6 11 11 25 11 31
0 17 -18 13 -29 -7z"/>
<path d="M2180 645 c0 -8 5 -15 10 -15 6 0 10 7 10 15 0 8 -4 15 -10 15 -5 0
-10 -7 -10 -15z"/>
<path d="M1027 9893 c-10 -9 29 -100 56 -128 15 -16 27 -33 27 -36 0 -3 14 -6
30 -7 17 0 28 4 25 9 -4 5 -1 9 4 9 6 0 11 5 11 11 0 5 -4 7 -10 4 -5 -3 -13
7 -16 22 -14 54 -105 138 -127 116z"/>
<path d="M1464 9503 c4 -9 1 -20 -6 -25 -11 -6 -10 -8 0 -8 7 0 10 -4 7 -10
-3 -5 -1 -10 4 -10 6 0 11 3 12 8 0 4 2 19 4 35 3 19 -1 27 -12 27 -10 0 -13
-6 -9 -17z"/>
<path d="M1200 9060 c-13 -8 -12 -10 3 -10 9 0 17 5 17 10 0 12 -1 12 -20 0z"/>
<path d="M6135 8440 c3 -5 11 -10 16 -10 6 0 7 5 4 10 -3 6 -11 10 -16 10 -6
0 -7 -4 -4 -10z"/>
<path d="M6300 8421 c0 -5 5 -13 10 -16 6 -3 10 0 10 7 0 10 3 9 11 -2 9 -13
10 -13 6 0 -4 17 -37 27 -37 11z"/>
<path d="M7551 8414 c0 -11 3 -14 6 -6 3 7 2 16 -1 19 -3 4 -6 -2 -5 -13z"/>
<path d="M7334 8408 c-4 -7 -4 -10 1 -6 4 4 14 3 22 -4 7 -6 17 -8 20 -4 4 4
1 11 -7 16 -20 13 -27 12 -36 -2z"/>
<path d="M6244 8398 c-4 -7 -4 -10 1 -6 4 4 14 3 22 -4 7 -6 16 -8 19 -5 3 3
-3 10 -15 16 -15 8 -22 8 -27 -1z"/>
<path d="M7131 8401 c-9 -6 -10 -11 -2 -15 6 -4 11 -1 11 6 0 9 3 9 10 -2 6
-9 10 -10 10 -3 0 17 -14 23 -29 14z"/>
<path d="M7225 8390 c-3 -6 1 -7 9 -4 18 7 21 14 7 14 -6 0 -13 -4 -16 -10z"/>
<path d="M6400 8386 c0 -2 8 -10 18 -17 15 -13 16 -12 3 4 -13 16 -21 21 -21
13z"/>
<path d="M6685 8370 c3 -5 11 -10 16 -10 6 0 7 5 4 10 -3 6 -11 10 -16 10 -6
0 -7 -4 -4 -10z"/>
<path d="M6997 8373 c-9 -2 -14 -9 -11 -15 4 -6 1 -14 -6 -18 -8 -5 -6 -9 8
-12 16 -4 18 -1 14 15 -4 17 -1 19 17 14 18 -4 20 -3 10 9 -6 8 -12 13 -13 13
0 -1 -9 -3 -19 -6z"/>
<path d="M5155 8280 c-16 -25 23 -110 50 -110 20 0 20 44 0 60 -8 7 -15 18
-15 25 0 19 -27 38 -35 25z"/>
<path d="M5260 8059 c0 -40 32 -91 67 -106 48 -20 69 -9 86 42 13 36 13 47 2
61 -11 16 -18 17 -61 7 -40 -10 -53 -9 -71 3 -21 13 -23 13 -23 -7z"/>
<path d="M6192 7497 c-20 -27 -20 -49 4 -108 13 -35 24 -82 24 -106 0 -24 5
-43 11 -43 5 0 8 -4 5 -9 -3 -5 1 -11 9 -15 20 -7 34 22 29 59 -3 20 7 55 30
103 28 62 32 77 22 98 -9 19 -19 24 -51 25 -22 0 -48 2 -57 4 -9 2 -21 -2 -26
-8z"/>
<path d="M1569 7474 c-9 -11 -4 -13 27 -12 22 0 50 -2 64 -6 14 -3 19 -4 13 0
-7 3 -13 11 -13 18 0 18 -76 17 -91 0z"/>
<path d="M5688 7465 c-13 -20 -21 -105 -9 -105 6 0 13 11 17 24 7 29 1 95 -8
81z"/>
<path d="M5381 7414 c-2 -42 22 -104 41 -104 11 0 20 42 14 70 -7 39 -15 55
-34 67 -17 10 -19 7 -21 -33z"/>
<path d="M6705 7449 c-4 -6 -5 -12 -2 -15 2 -3 7 2 10 11 7 17 1 20 -8 4z"/>
<path d="M1865 7437 c-16 -5 -37 -12 -45 -14 -13 -4 -13 -5 0 -13 12 -7 9 -10
-12 -10 -15 0 -30 5 -33 10 -4 6 -11 8 -16 5 -5 -4 -9 -1 -9 4 0 16 -16 13
-34 -4 -8 -8 -23 -15 -34 -15 -10 0 -19 -7 -19 -15 0 -8 9 -14 21 -14 12 0 57
-9 101 -21 44 -12 86 -22 92 -22 17 -2 93 -93 93 -112 0 -27 -48 -48 -132 -57
-111 -12 -204 -44 -225 -76 -14 -21 -14 -26 -2 -34 8 -5 24 -7 36 -4 12 3 25
1 28 -5 3 -5 26 -10 50 -10 33 0 43 3 39 14 -5 14 36 46 61 46 8 0 19 -10 24
-22 5 -13 20 -35 34 -50 21 -23 35 -28 72 -28 38 0 46 -3 43 -16 -3 -19 -21
-30 -60 -39 -34 -7 -37 -35 -5 -36 150 -6 244 31 262 104 5 17 14 27 26 27 12
0 25 15 38 43 11 24 38 66 60 93 38 45 53 84 33 84 -5 0 -21 25 -37 55 -26 52
-34 59 -62 56 -7 -1 -13 5 -13 14 0 9 -5 13 -11 10 -6 -4 -17 1 -24 11 -14 18
-14 18 -15 0 0 -18 -1 -18 -18 -3 -38 35 -86 46 -178 42 -49 -2 -91 0 -94 4
-3 4 -18 3 -35 -2z"/>
<path d="M1600 7414 l-55 -24 45 6 c25 4 54 15 65 25 25 24 13 23 -55 -7z"/>
<path d="M1880 7310 c0 -5 5 -10 11 -10 5 0 7 5 4 10 -3 6 -8 10 -11 10 -2 0
-4 -4 -4 -10z"/>
<path d="M6187 7049 c-10 -6 -32 -24 -48 -40 -30 -29 -31 -32 -24 -93 6 -61
31 -123 78 -196 21 -33 22 -44 19 -190 -2 -138 0 -162 20 -223 22 -67 24 -70
79 -97 68 -35 87 -62 98 -141 4 -33 14 -65 22 -70 66 -42 81 50 23 144 l-36
59 17 64 c12 45 15 78 10 116 -4 28 -7 88 -7 132 1 103 -9 129 -58 151 -22 10
-51 35 -67 58 -23 33 -28 51 -28 99 0 32 -5 62 -10 66 -30 21 -66 93 -67 131
0 23 -1 41 -2 41 0 0 -9 -5 -19 -11z"/>
<path d="M0 6784 l0 -176 33 -32 c51 -48 84 -97 97 -144 10 -40 16 -46 65 -68
70 -30 128 -83 154 -139 29 -62 65 -79 156 -73 44 3 81 11 96 21 31 22 51 21
99 -3 45 -23 56 -50 46 -110 -8 -49 10 -94 54 -138 44 -45 78 -60 142 -66 33
-3 74 -16 103 -32 l48 -27 21 25 c46 55 66 83 66 92 0 20 -87 144 -137 193
-29 28 -66 79 -83 113 -17 33 -36 63 -43 65 -7 2 -39 9 -72 17 l-59 13 -28 75
c-16 41 -34 80 -41 85 -15 12 -68 82 -83 110 -6 11 -10 30 -8 41 3 20 0 22
-44 18 -26 -3 -71 -14 -100 -24 -81 -31 -106 -27 -161 25 -26 24 -54 57 -62
72 -7 15 -26 48 -41 72 -16 25 -28 52 -28 61 0 21 -31 50 -54 50 -9 0 -43 14
-76 30 l-60 30 0 -176z"/>
<path d="M6876 6861 c-12 -19 17 -78 61 -123 42 -42 73 -60 73 -42 0 10 -93
158 -105 166 -13 10 -23 10 -29 -1z"/>
<path d="M7068 6633 c-13 -25 -7 -75 13 -109 12 -22 28 -72 35 -113 11 -62 20
-82 58 -131 25 -32 46 -69 46 -82 1 -42 31 -64 119 -88 23 -6 50 -14 60 -17
15 -6 15 -5 0 13 -9 10 -22 36 -30 56 -7 21 -43 75 -81 120 -37 46 -68 89 -68
96 0 6 -3 12 -7 12 -5 0 -8 24 -9 53 -1 58 -21 108 -62 154 -27 32 -67 51 -74
36z"/>
<path d="M1267 6445 c21 -29 36 -32 31 -7 -2 9 -10 16 -16 15 -7 -2 -12 2 -12
7 0 6 -5 10 -10 10 -6 0 -3 -11 7 -25z"/>
<path d="M2445 6147 c-4 -15 -4 -35 0 -44 6 -15 9 -13 16 11 4 16 4 36 -1 45
-7 13 -10 11 -15 -12z"/>
<path d="M7443 6031 c20 -73 -24 -165 -82 -174 -31 -5 -51 -33 -51 -74 0 -37
58 -163 75 -163 7 0 21 10 32 23 16 17 22 41 27 106 7 108 18 123 92 136 l59
10 -3 44 c-4 60 -30 104 -59 98 -13 -2 -20 0 -16 6 3 6 -8 8 -31 5 -25 -3 -36
0 -36 9 0 7 -4 13 -9 13 -4 0 -4 -17 2 -39z"/>
<path d="M5743 5991 c-28 -14 -33 -21 -33 -55 0 -22 7 -47 16 -57 17 -18 29
-92 19 -116 -4 -12 -8 -13 -20 -3 -12 10 -15 10 -15 0 0 -8 -9 -10 -27 -6 -19
5 -24 4 -14 -3 12 -8 12 -14 -4 -38 -10 -15 -24 -32 -32 -36 -16 -10 -18 -113
-1 -123 6 -4 8 -3 4 4 -3 6 -2 13 2 16 17 10 95 -122 161 -272 22 -51 25 -53
60 -51 20 1 62 -4 94 -11 44 -10 60 -11 69 -2 9 9 -1 25 -45 68 -31 31 -57 59
-57 64 0 4 -15 13 -32 21 -51 20 -86 49 -103 85 -34 72 -6 115 102 160 57 23
73 35 96 72 15 24 27 47 27 51 0 4 -18 16 -40 26 -54 24 -101 78 -129 146 -27
68 -52 83 -98 60z"/>
<path d="M0 5636 c0 -297 2 -356 14 -356 8 0 17 12 20 26 5 20 11 24 29 18 12
-4 25 -11 28 -16 3 -5 10 -10 15 -10 17 -1 49 -17 94 -47 25 -17 49 -31 54
-31 13 0 149 -91 164 -109 7 -9 29 -40 48 -69 23 -35 58 -68 103 -98 68 -45
69 -45 110 -33 27 8 51 25 68 48 35 46 50 61 98 96 69 50 115 98 115 120 0 33
-86 123 -149 154 -31 16 -76 46 -101 68 -25 21 -70 56 -100 78 -30 21 -103 89
-161 150 -136 141 -263 250 -326 280 -27 12 -66 37 -86 55 l-37 32 0 -356z"/>
<path d="M6807 5925 c8 -25 19 -43 23 -40 9 6 -21 85 -32 85 -4 0 0 -20 9 -45z"/>
<path d="M5629 5886 c-1 -1 -3 -10 -4 -21 -1 -14 4 -21 15 -22 12 -1 18 6 18
21 0 17 -17 30 -29 22z"/>
<path d="M5620 5820 c0 -5 7 -10 15 -10 8 0 12 -6 9 -14 -3 -8 -1 -17 5 -21
15 -9 14 28 -1 43 -15 15 -28 16 -28 2z"/>
<path d="M6740 5692 c0 -5 6 -17 14 -28 19 -25 31 -12 14 15 -13 21 -28 28
-28 13z"/>
<path d="M1615 5580 c3 -5 8 -10 11 -10 2 0 4 5 4 10 0 6 -5 10 -11 10 -5 0
-7 -4 -4 -10z"/>
<path d="M1546 5513 c-6 -14 -5 -15 5 -6 7 7 10 15 7 18 -3 3 -9 -2 -12 -12z"/>
<path d="M1490 5475 c-7 -9 -11 -17 -8 -20 2 -2 12 4 21 15 9 11 13 20 8 20
-5 0 -14 -7 -21 -15z"/>
<path d="M7153 5313 c30 -35 57 -123 63 -211 8 -124 17 -152 63 -190 48 -40
81 -104 81 -160 0 -35 5 -45 33 -66 19 -14 49 -31 68 -37 19 -7 46 -21 61 -31
15 -10 42 -24 60 -30 18 -6 44 -22 58 -35 14 -13 28 -23 32 -23 5 0 8 54 8
120 0 101 -2 120 -15 120 -51 0 -172 98 -235 189 -21 31 -57 74 -80 96 -45 43
-80 103 -101 173 -13 45 -67 102 -96 102 -15 0 -15 -2 0 -17z"/>
<path d="M5661 5281 c-13 -17 -28 -28 -32 -25 -5 3 -9 0 -9 -5 0 -6 -7 -11
-15 -11 -8 0 -15 -5 -15 -10 0 -7 13 -8 38 -3 20 4 48 7 62 6 14 -1 30 3 36 8
15 12 6 51 -10 46 -6 -2 -16 3 -21 10 -9 12 -15 9 -34 -16z"/>
<path d="M6534 5225 c3 -8 1 -15 -5 -15 -6 0 -7 -5 -4 -10 4 -6 8 -26 10 -45
1 -18 16 -60 31 -92 15 -32 27 -61 26 -64 0 -4 9 -6 21 -5 12 0 22 -5 23 -11
1 -7 2 -18 3 -24 1 -8 5 -8 15 0 17 15 27 -9 22 -52 -2 -20 0 -27 10 -23 8 3
11 0 8 -9 -7 -18 50 -77 67 -70 8 3 23 25 34 48 15 32 27 43 49 47 32 5 61 40
72 82 7 30 -6 39 -78 52 -33 6 -38 4 -54 -23 -21 -36 -74 -60 -74 -34 0 9 -3
14 -6 10 -13 -13 -61 57 -70 101 -1 7 -19 33 -39 58 -21 25 -37 56 -37 70 0
15 -6 24 -15 24 -9 0 -13 -6 -9 -15z"/>
<path d="M1262 5159 c-7 -12 -11 -23 -8 -26 8 -9 36 17 36 33 0 20 -13 17 -28
-7z"/>
<path d="M5609 5144 c-26 -7 -52 -21 -59 -29 -7 -8 -18 -15 -26 -15 -7 0 -18
-9 -23 -19 -6 -10 -24 -24 -41 -29 -20 -7 -28 -16 -24 -25 7 -19 -52 -51 -60
-33 -2 6 -5 3 -5 -6 -1 -10 -9 -18 -18 -18 -10 0 -29 -9 -43 -20 -14 -11 -31
-20 -38 -20 -18 0 -62 -46 -62 -64 0 -27 51 -12 129 39 41 27 80 48 86 48 6 0
16 6 23 14 7 7 9 13 3 13 -5 0 -8 6 -7 14 2 15 36 52 36 39 0 -5 -6 -15 -12
-22 -11 -10 -10 -11 5 -6 9 4 17 11 17 15 0 5 8 6 18 3 9 -2 39 8 66 23 42 23
62 28 144 30 101 3 135 16 87 34 -15 6 -39 19 -53 30 -29 23 -77 25 -143 4z"/>
<path d="M973 5084 c-62 -64 -44 -70 20 -6 28 29 45 52 38 52 -8 0 -34 -21
-58 -46z"/>
<path d="M7656 5105 c-15 -23 -15 -33 -1 -127 8 -56 17 -104 20 -106 3 -3 5
54 5 126 0 73 -2 132 -4 132 -2 0 -11 -11 -20 -25z"/>
<path d="M6341 5091 c-10 -6 -12 -21 -8 -51 10 -76 30 -69 25 9 -2 40 -6 49
-17 42z"/>
<path d="M4750 5039 c0 -27 17 -41 46 -37 26 4 27 5 9 13 -11 4 -28 15 -37 23
-15 13 -18 13 -18 1z"/>
<path d="M1001 4956 c-9 -10 -9 -16 -1 -21 17 -10 37 12 24 25 -8 8 -15 6 -23
-4z"/>
<path d="M6146 4922 c-7 -12 22 -38 31 -28 4 3 0 14 -9 22 -9 10 -18 12 -22 6z"/>
<path d="M882 4828 c-14 -14 -16 -38 -3 -38 15 0 42 31 36 41 -8 12 -19 11
-33 -3z"/>
<path d="M0 4093 l0 -718 59 -65 c57 -63 58 -64 82 -49 57 38 183 167 211 216
34 61 65 87 156 132 34 17 62 34 62 36 0 3 -26 36 -57 74 -32 38 -67 86 -78
107 -11 22 -23 41 -26 44 -46 38 -192 234 -234 315 -12 22 -42 76 -66 120
l-44 80 0 110 c0 100 2 113 24 144 l24 33 -38 36 c-21 20 -44 51 -51 69 -8 18
-16 33 -19 33 -3 0 -5 -323 -5 -717z"/>
<path d="M6955 4691 c-3 -11 -24 -36 -45 -58 -50 -48 -55 -91 -12 -121 46 -33
132 -73 142 -67 18 11 10 62 -15 99 -14 21 -32 52 -39 70 -12 29 -12 36 0 48
17 16 9 48 -11 48 -8 0 -16 -9 -20 -19z"/>
<path d="M5887 3278 c8 -109 23 -199 38 -227 20 -36 18 -17 -9 142 -25 150
-37 184 -29 85z"/>
<path d="M6175 3309 c-11 -17 1 -21 15 -4 8 9 8 15 2 15 -6 0 -14 -5 -17 -11z"/>
<path d="M5288 3219 c-27 -35 -88 -163 -88 -183 0 -6 5 -4 10 4 14 22 12 2 -9
-81 -10 -41 -19 -93 -19 -116 -1 -24 -3 -47 -6 -52 -3 -5 4 -11 16 -14 20 -6
20 -7 6 -30 -9 -13 -14 -35 -11 -50 3 -15 1 -27 -5 -27 -6 0 -8 -9 -5 -19 7
-27 -36 -40 -53 -16 -11 15 -13 11 -18 -27 -10 -82 -26 -386 -26 -500 0 -64 7
-184 16 -269 13 -125 14 -209 8 -449 -5 -162 -8 -518 -9 -790 0 -272 -4 -519
-9 -548 l-9 -52 148 0 147 0 -4 138 c-5 142 -11 172 -33 172 -8 0 -23 12 -35
27 -16 20 -20 36 -16 67 3 23 8 76 11 120 3 43 9 86 14 95 11 20 31 137 31
178 0 22 -7 33 -26 44 -36 19 -40 30 -80 239 -3 14 -9 42 -14 63 -4 20 -4 39
0 42 4 3 11 17 15 32 11 47 54 124 103 187 26 34 58 77 71 96 l23 35 -29 -31
c-15 -17 -49 -61 -76 -98 -44 -62 -50 -67 -80 -64 -31 3 -33 6 -44 63 -8 35
-11 91 -7 135 3 41 5 107 4 147 -1 54 4 82 19 111 11 22 22 50 25 63 2 13 7
32 11 42 14 34 -6 16 -40 -38 -41 -63 -62 -72 -50 -22 9 35 9 46 -1 192 -7
112 9 361 33 505 8 52 16 117 18 145 1 27 5 61 8 75 3 14 8 51 11 83 4 48 2
58 -10 53 -11 -4 -11 -1 2 19 10 15 14 37 12 55 -3 16 -1 30 4 30 4 0 8 11 8
24 0 14 4 28 10 31 13 8 63 170 58 186 -2 7 -15 -2 -30 -22z"/>
<path d="M343 3118 c-13 -6 -25 -19 -28 -28 -3 -10 -14 -25 -25 -35 -16 -14
-17 -21 -7 -39 17 -31 26 -35 66 -29 52 8 71 29 71 78 0 61 -25 78 -77 53z"/>
<path d="M3830 3116 c0 -2 7 -9 15 -16 9 -7 15 -8 15 -2 0 5 -7 12 -15 16 -8
3 -15 4 -15 2z"/>
<path d="M3781 3081 c-12 -8 -10 -12 12 -22 31 -14 45 -6 27 16 -14 17 -20 18
-39 6z"/>
<path d="M6006 3006 c-11 -17 -22 -23 -36 -19 -16 4 -20 1 -19 -18 1 -13 4
-35 9 -49 7 -24 8 -24 25 15 9 22 24 52 31 68 18 33 12 35 -10 3z"/>
<path d="M6775 2510 c3 -5 0 -10 -7 -10 -10 0 -9 -3 2 -10 9 -6 17 -5 22 3 8
13 1 27 -13 27 -6 0 -7 -4 -4 -10z"/>
<path d="M6423 2490 c-1 -11 2 -18 8 -15 11 7 12 35 1 35 -4 0 -8 -9 -9 -20z"/>
<path d="M6786 2461 c-4 -5 -2 -12 3 -15 5 -4 12 -2 15 3 4 5 2 12 -3 15 -5 4
-12 2 -15 -3z"/>
<path d="M5921 2414 c0 -11 3 -14 6 -6 3 7 2 16 -1 19 -3 4 -6 -2 -5 -13z"/>
<path d="M6796 2422 c-2 -4 -1 -14 4 -22 7 -11 9 -9 7 8 -1 24 -3 26 -11 14z"/>
<path d="M6491 2404 c0 -11 3 -14 6 -6 3 7 2 16 -1 19 -3 4 -6 -2 -5 -13z"/>
<path d="M6410 2340 c0 -21 15 -27 25 -10 3 6 1 10 -5 10 -6 0 -8 5 -5 10 3 6
1 10 -4 10 -6 0 -11 -9 -11 -20z"/>
<path d="M6585 2320 c-3 -5 -1 -10 4 -10 6 0 11 5 11 10 0 6 -2 10 -4 10 -3 0
-8 -4 -11 -10z"/>
<path d="M6440 2205 c-1 -22 -4 -34 -7 -27 -2 6 -9 12 -14 12 -6 0 -6 -7 0
-19 7 -12 7 -39 1 -77 -7 -43 -6 -60 2 -65 7 -4 16 -5 20 -3 4 3 3 -7 -3 -23
-8 -22 -8 -26 2 -16 7 7 14 21 15 30 2 10 6 33 9 51 3 19 3 32 -2 29 -4 -3 -6
14 -5 37 2 23 -1 57 -6 76 l-10 35 -2 -40z"/>
<path d="M6644 1992 c-14 -9 -14 -41 1 -36 6 3 11 13 11 24 0 11 0 20 -1 20 0
0 -5 -4 -11 -8z"/>
<path d="M5305 1980 c3 -5 8 -10 11 -10 2 0 4 5 4 10 0 6 -5 10 -11 10 -5 0
-7 -4 -4 -10z"/>
<path d="M5643 1888 c-58 -60 -106 -138 -124 -203 l-8 -30 22 29 c26 35 177
266 174 266 -2 0 -30 -28 -64 -62z"/>
<path d="M6955 1940 c3 -5 8 -10 11 -10 2 0 4 5 4 10 0 6 -5 10 -11 10 -5 0
-7 -4 -4 -10z"/>
<path d="M6640 1930 c0 -5 5 -10 11 -10 5 0 7 5 4 10 -3 6 -8 10 -11 10 -2 0
-4 -4 -4 -10z"/>
<path d="M6643 1874 c0 -17 2 -22 7 -13 5 6 6 18 3 26 -8 19 -10 16 -10 -13z"/>
<path d="M6750 1810 c0 -5 5 -10 10 -10 6 0 10 5 10 10 0 6 -4 10 -10 10 -5 0
-10 -4 -10 -10z"/>
<path d="M7055 1770 c3 -5 8 -10 11 -10 2 0 4 5 4 10 0 6 -5 10 -11 10 -5 0
-7 -4 -4 -10z"/>
<path d="M6647 1743 c-9 -15 -3 -363 6 -363 4 0 5 -4 2 -10 -3 -5 0 -10 7 -10
10 0 10 -2 -1 -9 -19 -12 -22 -51 -4 -44 7 3 10 9 7 14 -3 6 -1 15 4 22 10 13
10 46 -1 64 -4 6 -2 13 4 15 12 4 14 161 3 180 -4 6 -8 33 -9 60 -2 27 -5 52
-9 55 -3 3 -1 12 5 20 8 9 8 13 1 13 -6 0 -13 -3 -15 -7z"/>
<path d="M7047 1716 c-3 -8 1 -17 10 -20 20 -8 25 -3 17 18 -8 20 -20 21 -27
2z"/>
<path d="M7050 1673 c0 -13 14 -28 28 -31 8 -1 12 5 10 15 -3 17 -38 32 -38
16z"/>
<path d="M2570 1658 c0 -31 13 -56 25 -52 19 8 12 58 -9 62 -9 2 -16 -2 -16
-10z"/>
<path d="M7063 1619 c9 -6 17 -15 17 -22 0 -7 -4 -6 -10 3 -5 8 -12 12 -15 8
-4 -3 4 -16 17 -28 20 -19 21 -20 3 -14 -18 7 -18 6 -7 -9 8 -9 11 -20 8 -26
-3 -5 1 -12 10 -15 12 -4 15 -2 10 9 -3 8 -1 15 5 15 6 0 6 7 -1 19 -5 11 -10
30 -10 43 0 17 -6 24 -22 25 -20 2 -21 1 -5 -8z"/>
<path d="M2600 1592 c0 -6 -12 -17 -27 -24 -27 -13 -45 -58 -24 -58 6 0 11 5
11 10 0 6 9 10 20 10 12 0 20 6 19 13 -1 6 1 20 6 30 4 10 5 21 1 24 -3 4 -6
1 -6 -5z"/>
<path d="M7061 1489 c7 -19 18 -41 25 -49 12 -12 14 -12 14 5 0 17 2 18 11 5
8 -13 10 -12 7 4 -2 10 -18 30 -35 43 l-33 25 11 -33z m34 -9 c3 -6 -1 -7 -9
-4 -18 7 -21 14 -7 14 6 0 13 -4 16 -10z"/>
<path d="M2562 1498 c-5 -7 -17 -28 -26 -46 -17 -32 -17 -32 11 -44 51 -20 53
-19 48 25 -2 23 -4 50 -4 60 -1 20 -14 22 -29 5z"/>
<path d="M6848 1254 c6 -12 8 -25 4 -30 -4 -5 0 -3 8 4 12 10 12 15 -4 30 -18
16 -18 16 -8 -4z"/>
<path d="M6639 1252 c9 -7 10 -11 2 -15 -7 -4 -8 -5 0 -3 15 2 13 20 -3 24
-10 3 -10 2 1 -6z"/>
<path d="M6189 1225 c-1 -3 -2 -8 -3 -12 -1 -5 -5 -14 -9 -20 -10 -16 5 -17
21 -1 15 15 16 38 2 38 -5 0 -11 -2 -11 -5z"/>
<path d="M6624 1084 c3 -9 -1 -25 -9 -37 -20 -28 -21 -104 -2 -88 8 6 16 8 19
5 3 -2 8 2 11 10 4 10 1 13 -7 10 -21 -8 -28 24 -8 35 12 7 13 10 3 11 -11 0
-11 4 1 23 16 23 13 47 -4 47 -6 0 -7 -7 -4 -16z"/>
<path d="M6905 1010 c3 -19 8 -50 11 -69 2 -19 9 -40 15 -47 6 -7 8 -18 5 -23
-4 -5 -2 -12 4 -16 7 -4 9 11 6 42 -3 45 -9 63 -35 123 -10 23 -10 22 -6 -10z"/>
<path d="M6598 910 c-2 -16 -1 -27 3 -25 11 7 18 44 9 50 -4 3 -10 -8 -12 -25z"/>
<path d="M6616 872 c-11 -14 -14 -22 -7 -17 8 4 16 2 21 -5 10 -16 19 9 11 32
-5 14 -9 12 -25 -10z"/>
<path d="M6590 809 c0 -5 5 -7 10 -4 6 3 10 8 10 11 0 2 -4 4 -10 4 -5 0 -10
-5 -10 -11z"/>
<path d="M7093 803 c-13 -5 -7 -33 7 -33 11 0 21 28 12 33 -4 3 -12 2 -19 0z"/>
<path d="M7080 750 c0 -5 7 -10 15 -10 14 0 14 -3 0 -29 -9 -19 -11 -32 -5
-36 6 -3 10 -1 10 4 0 6 5 11 10 11 7 0 6 -8 -2 -22 -10 -19 -17 -59 -18 -103
-2 -45 9 -175 14 -184 4 -6 4 -21 1 -34 -5 -17 -4 -19 4 -7 8 12 11 8 12 -20
1 -19 1 -41 0 -48 -1 -8 2 -19 8 -25 5 -7 9 -34 9 -62 0 -78 1 -87 13 -79 7 4
9 0 5 -14 -4 -12 -4 -37 0 -57 l6 -36 54 2 c57 3 62 6 42 28 -11 11 -10 12 1
6 11 -6 12 1 6 41 -4 27 -7 60 -6 73 0 14 -6 35 -15 49 -9 13 -14 33 -11 43 3
10 1 22 -4 25 -5 3 -7 9 -4 14 3 5 -2 16 -11 24 -9 10 -11 16 -4 16 8 0 9 7 5
18 -14 34 -22 101 -26 215 0 26 -5 47 -10 47 -6 0 -5 9 1 20 8 15 8 18 -3 14
-16 -6 -31 22 -17 31 6 4 10 1 10 -6 0 -7 3 -10 6 -7 3 4 0 17 -7 30 -7 12
-12 27 -11 31 1 5 -2 6 -8 2 -5 -3 -10 1 -10 9 0 9 -5 16 -11 16 -5 0 -7 5 -4
10 4 6 -5 10 -19 10 -14 0 -26 -4 -26 -10z m50 -34 c0 -2 -7 -7 -16 -10 -8 -3
-12 -2 -9 4 6 10 25 14 25 6z"/>
<path d="M6576 715 c4 -8 7 -15 9 -15 2 0 5 7 9 15 3 9 0 15 -9 15 -9 0 -12
-6 -9 -15z"/>
<path d="M6947 587 c-10 -21 -16 -45 -13 -53 3 -7 1 -13 -5 -11 -12 2 -46 -76
-54 -124 -3 -18 -9 -39 -14 -48 -5 -9 -6 -22 -4 -28 3 -7 0 -13 -6 -13 -6 0
-8 -7 -5 -15 4 -8 1 -15 -6 -15 -6 0 -8 -4 -5 -10 3 -5 -1 -20 -9 -32 -8 -13
-17 -35 -20 -49 -2 -15 -11 -40 -20 -57 -16 -31 -21 -74 -10 -85 10 -10 34 4
27 16 -4 7 0 8 12 3 16 -6 16 -4 4 11 -12 14 -12 16 1 11 11 -4 16 0 16 13 0
26 -11 24 -35 -7 -12 -15 -21 -22 -21 -16 0 6 5 14 10 17 6 4 7 11 4 17 -4 6
-2 8 3 5 6 -4 19 3 29 15 12 14 14 18 4 13 -13 -8 -13 -7 -1 8 7 9 10 17 7 17
-4 0 0 10 8 21 8 12 12 28 9 35 -3 8 0 14 6 14 6 0 11 13 11 29 0 17 4 32 9
35 5 4 7 -3 4 -14 -3 -11 -1 -26 5 -33 5 -6 8 -24 6 -40 -3 -27 11 -38 19 -14
2 6 7 -3 11 -20 8 -33 26 -46 26 -19 0 8 5 18 12 22 6 4 8 3 5 -4 -5 -7 1 -6
17 1 27 13 24 31 -4 22 -10 -3 -20 0 -23 9 -4 10 1 13 16 10 12 -2 17 -2 10 2
-7 3 -9 12 -6 20 6 17 -8 19 -25 2 -9 -9 -12 -9 -12 1 0 7 -5 9 -10 6 -11 -7
-9 14 6 62 4 15 1 25 -8 28 -12 5 -16 34 -8 55 1 3 2 9 1 13 -1 4 5 10 13 13
8 3 12 13 9 25 -3 10 0 25 6 32 6 8 8 18 4 23 -4 5 -2 4 5 -2 12 -10 18 -28
21 -56 1 -5 5 -8 11 -8 5 0 7 7 4 15 -4 8 -1 15 6 15 9 0 10 3 1 13 -6 8 -8
16 -5 19 3 3 -6 15 -20 26 -21 16 -23 21 -11 26 8 3 15 1 15 -4 0 -6 5 -10 11
-10 7 0 6 8 -4 23 -8 13 -16 32 -19 42 -3 16 -7 12 -21 -18z m-17 -257 c0 -5
-5 -10 -11 -10 -5 0 -7 5 -4 10 3 6 8 10 11 10 2 0 4 -4 4 -10z m-33 -62 c-3
-8 -6 -5 -6 6 -1 11 2 17 5 13 3 -3 4 -12 1 -19z"/>
<path d="M6978 423 c7 -3 16 -2 19 1 4 3 -2 6 -13 5 -11 0 -14 -3 -6 -6z"/>
<path d="M6980 364 c0 -8 5 -12 10 -9 6 4 8 11 5 16 -9 14 -15 11 -15 -7z"/>
<path d="M7010 361 c0 -5 7 -11 15 -15 8 -3 15 -1 15 3 0 5 -7 11 -15 15 -8 3
-15 1 -15 -3z"/>
<path d="M7005 240 c2 -27 15 -38 15 -12 0 11 -4 23 -8 26 -5 3 -8 -4 -7 -14z"/>
<path d="M6890 167 c8 -7 15 -18 15 -26 0 -8 6 -16 13 -18 6 -3 12 0 12 6 0 6
-4 11 -9 11 -5 0 -7 8 -4 18 3 13 -2 18 -19 19 -19 2 -21 0 -8 -10z"/>
<path d="M6990 155 c0 -8 4 -15 10 -15 5 0 7 7 4 15 -4 8 -8 15 -10 15 -2 0
-4 -7 -4 -15z"/>
<path d="M6940 131 c0 -6 4 -13 10 -16 6 -3 7 1 4 9 -7 18 -14 21 -14 7z"/>
<path d="M1549 113 c0 -10 -2 -27 -4 -38 -5 -24 22 -56 41 -48 10 4 11 10 4
23 -6 10 -10 32 -10 49 0 33 -29 46 -31 14z"/>
<path d="M6895 92 c-2 -7 0 -10 5 -7 6 3 10 2 10 -3 0 -5 7 -9 15 -9 8 0 15 8
15 17 0 19 -37 22 -45 2z"/>
<path d="M6908 43 c7 -3 16 -2 19 1 4 3 -2 6 -13 5 -11 0 -14 -3 -6 -6z"/>
<path d="M6757 33 c-4 -3 -7 -12 -7 -20 0 -14 21 -14 32 2 13 17 -10 34 -25
18z"/>
<path d="M1595 10 c-3 -5 1 -10 10 -10 9 0 13 5 10 10 -3 6 -8 10 -10 10 -2 0
-7 -4 -10 -10z"/>
</g>
</svg>
